<svg xmlns="http://www.w3.org/2000/svg" fill="none" viewBox="0 0 215 99"><path fill="#262221" fill-rule="evenodd" d="M60.06 16.33h14.32v-5.38H59.75c-.28 0-.57.04-.84.12l-11.38 3.2h-15.6a3.1 3.1 0 0 0-2.16.87l-7.38 7.2H4.87v5.58h14.32l11.38 3.2c.27.07.55.1.84.1h14.98l7.37 7.2a3.1 3.1 0 0 0 2.17.88H74.4v-5.38H56.86l-7.37-7.2a3.1 3.1 0 0 0-2.17-.87h-15.6l-4.06-1.14 5.2-5.07h14.98c.28 0 .57-.04.84-.11l11.38-3.2Zm0 43.41h14.32v-5.59H56.85l-7.37-7.19a3.1 3.1 0 0 0-2.17-.88h-15.6L20.34 42.9a3.06 3.06 0 0 0-.83-.12H4.87v5.38h14.32l11.38 3.2c.27.07.55.11.84.11h14.98l5.2 5.07-4.06 1.14h-15.6a3.1 3.1 0 0 0-2.17.88l-7.37 7.19H4.86v5.38h18.46a3.1 3.1 0 0 0 2.16-.88l7.37-7.2h15c.27 0 .56-.03.83-.1l11.38-3.2ZM4.86 82.66h47.57l7.37-7.18a3.1 3.1 0 0 1 2.17-.89h12.41v5.38H62.9l-7.37 7.2a3.1 3.1 0 0 1-2.17.88H4.86v-5.39Z" clip-rule="evenodd"/><path fill="#262221" d="M204.25 72.19c-3.81 0-6.18-2.72-6.18-6.73 0-4 2.32-6.75 6.08-6.75 3.77 0 5.98 2.66 5.98 6.75s0 .52-.02.75h-9.57c.22 2.32 1.49 3.91 3.71 3.91 2.22 0 2.74-.85 3.26-2.34h2.5c-.7 2.8-2.82 4.4-5.76 4.4Zm-3.64-7.98h7c-.32-2.22-1.62-3.46-3.46-3.46-1.84 0-3.19 1.4-3.54 3.46ZM187 59.03v2.1h.04a4.46 4.46 0 0 1 4.19-2.43c3.34 0 4.43 1.95 4.43 4.69v8.52h-2.46v-8.57c0-1.52-.92-2.52-2.47-2.52-2.44 0-3.6 1.72-3.6 3.97v7.12h-2.47V59.03h2.33ZM176.26 72.19c-3.81 0-6.18-2.72-6.18-6.73 0-4 2.32-6.75 6.08-6.75 3.77 0 5.98 2.66 5.98 6.75s0 .52-.02.75h-9.58c.23 2.32 1.5 3.91 3.72 3.91s2.74-.85 3.26-2.34h2.5c-.7 2.8-2.83 4.4-5.76 4.4Zm-3.65-7.98h7c-.31-2.22-1.61-3.46-3.46-3.46-1.84 0-3.19 1.4-3.54 3.46ZM165.16 71.92v-17.8h2.46v17.8h-2.46ZM159.6 71.92v-17.8h2.47v17.8h-2.47ZM151.16 72.19c-3.8 0-6.18-2.72-6.18-6.73 0-4 2.32-6.75 6.09-6.75 3.76 0 5.98 2.66 5.98 6.75s0 .52-.03.75h-9.57c.23 2.32 1.5 3.91 3.71 3.91 2.22 0 2.75-.85 3.27-2.34h2.49c-.7 2.8-2.81 4.4-5.76 4.4Zm-3.64-7.98h7c-.32-2.22-1.62-3.46-3.46-3.46-1.84 0-3.19 1.4-3.54 3.46ZM140.08 71.92c-.92 0-1.66-.75-1.66-1.67v-9.17h-2.3v-2.04h2.32v-3.86h2.44v3.86h2.7v2.04h-2.7v8.75h2.7v2.09h-3.5ZM128.89 72.19c-4.14 0-6.33-2.94-6.33-6.73 0-3.78 2.19-6.75 6.33-6.75 4.14 0 6.35 2.97 6.35 6.75 0 3.79-2.19 6.73-6.35 6.73Zm-3.76-6.73c0 3.04 1.7 4.64 3.77 4.64 2.07 0 3.79-1.6 3.79-4.64 0-3.04-1.7-4.66-3.8-4.66-2.1 0-3.76 1.62-3.76 4.66ZM111.6 54.12v6.83h.06c.72-1.57 2.46-2.24 4.06-2.24 3.34 0 4.44 1.94 4.44 4.69v8.52h-2.47v-8.58c0-1.51-.92-2.51-2.47-2.51-2.44 0-3.6 1.72-3.6 3.96v7.13h-2.47v-17.8h2.46ZM183.6 38.92v2.24h-7.33v-2.24h7.33ZM168.55 47.27c-3.66 0-5.68-2.02-5.68-4.44h2.49c.12 1.57 1.2 2.47 3.2 2.47 1.99 0 2.93-.68 2.93-1.82 0-1.15-.65-1.37-2.17-1.67l-2.2-.48c-2.66-.54-3.93-1.84-3.93-3.69 0-1.84 2.02-3.86 5.11-3.86 3.09 0 5.26 1.9 5.34 4.29h-2.44c-.18-1.67-1.32-2.4-2.9-2.4-1.56 0-2.68.75-2.68 1.85s.74 1.4 2.22 1.67l2.17.4c2.89.55 3.99 1.82 3.99 3.76-.02 2.28-2.19 3.92-5.45 3.92ZM154.79 47.27c-4.14 0-6.34-2.94-6.34-6.73 0-3.78 2.2-6.75 6.34-6.75s6.35 2.97 6.35 6.75c0 3.79-2.19 6.73-6.35 6.73Zm-3.77-6.73c0 3.04 1.7 4.63 3.77 4.63 2.07 0 3.79-1.6 3.79-4.63 0-3.04-1.7-4.66-3.8-4.66-2.06 0-3.76 1.62-3.76 4.66ZM147.9 34.11v2.3h-1.45c-2.17 0-3.6 1.41-3.6 4.48v6.1h-2.46V34.12h2.42v2.62h.05c.95-1.67 2.3-2.62 3.92-2.62h1.12ZM125.98 47.72l-1.03-.9 1.67-1.82a7.31 7.31 0 0 1-1.34-4.46c0-3.79 2.19-6.75 6.33-6.75 4.14 0 3.04.48 4.06 1.3l1.6-1.75 1.02.9-1.67 1.84a7.3 7.3 0 0 1 1.35 4.46c0 3.8-2.2 6.73-6.35 6.73-4.16 0-3.02-.48-4.04-1.3l-1.6 1.75Zm1.87-7.18c0 1.02.2 1.87.52 2.54l5.71-6.23a3.46 3.46 0 0 0-2.46-.97c-2.08 0-3.77 1.62-3.77 4.66Zm1.32 3.69c.65.62 1.52.94 2.44.94 2.1 0 3.8-1.6 3.8-4.63 0-3.04-.2-1.87-.53-2.57l-5.71 6.26ZM109.14 47V29.2h8.03c3.56 0 5.5 1.94 5.5 5.18 0 3.24-1.99 5.18-5.55 5.18h-1.74L124 47h-3.74l-8.34-7.43h-.08V47h-2.7Zm2.7-9.68h4.58c2.39 0 3.5-1 3.5-2.94s-1.11-2.91-3.5-2.91h-4.59v5.85Z"/></svg>
