<svg xmlns="http://www.w3.org/2000/svg" fill="none" viewBox="0 0 90 90"><path fill="#231F20" d="M57.15 42.65s-.76-.27-1.64-.87c-.45.05-.9.09-1.37.08h-.09c-.95 0-1.87-.1-2.75-.32l.1.15c.85 1.13 2 2.23 3.45 3.2l-.06.05h-.04l.02.01-.02.01h.04l.06.05c-1.45.97-2.6 2.08-3.45 3.2l-.1.15a9.31 9.31 0 0 0-1.82 5.14 10.88 10.88 0 0 0 0 1.27 8.84 8.84 0 0 0 2.9 6.12 9.84 9.84 0 0 0 5.45 2.54l.34-.5c.53-.82.91-1.56 1.16-2.2a7.18 7.18 0 0 1-5-1.9 6.02 6.02 0 0 1-2-4.67 7.2 7.2 0 0 1 .3-2.07 8.2 8.2 0 0 1 1.69-2.96c.38-.4.8-.74 1.19-1 .88-.6 1.64-.88 1.64-.88l7.72-2.3h-.03.03l-7.72-2.3Z"/><path fill="#231F20" d="m90 44.97-.11-.03c-.84-.23-6.07-1.7-8.12-2.91-2.59-1.34-5.36-3.5-8.27-6.54a1.08 1.08 0 0 1-.04-.05l-.54-.54-.82-.87c-3.06-3.16-5.79-5.44-8.34-6.71-.43-.22-.86-.4-1.29-.56a9.38 9.38 0 0 0-3.12-.62l-.43.01a9.64 9.64 0 0 0-6.6 2.68 9.03 9.03 0 0 0-2.86 6.18c.26.27.53.52.84.73.69.45 1.34.77 2.05.97-.05-.34-.08-.7-.08-1.06a6.17 6.17 0 0 1 1.99-4.73A6.99 6.99 0 0 1 59.21 29h.14c.3-.02.63.02.98.09.88.18 1.91.6 3.07 1.3.34.2.68.41 1.03.66A36.35 36.35 0 0 1 70.06 36l.84.9.57.56c3.34 3.48 6.6 6 9.82 7.5-3.22 1.5-6.48 4.02-9.82 7.5l-.57.57-.84.9a36.25 36.25 0 0 1-5.63 4.95v.26a10.93 10.93 0 0 1-.67 3.47c2.55-1.27 5.27-3.54 8.34-6.7l.82-.88.54-.54.04-.05c2.91-3.03 5.68-5.2 8.27-6.54 2.05-1.2 7.28-2.68 8.12-2.9l.11-.04Z"/><path fill="#231F20" d="M63.1 63.13c.55-1.21.86-2.38.93-3.53l.02-.33a9.54 9.54 0 0 0-2.67-6.9 8.91 8.91 0 0 0-5.2-2.72c-.42.33-.83.73-1.15 1.2-.33.5-.59.98-.78 1.48l.4-.02c1.94.02 3.38.63 4.67 1.96a6.9 6.9 0 0 1 1.64 6.6c-.26.84-.72 1.8-1.4 2.85-.2.32-.44.64-.68.97a37.06 37.06 0 0 1-4.6 5.1l-.88.83-.56.55c-3.44 3.28-5.93 6.48-7.41 9.65-1.49-3.17-3.98-6.37-7.41-9.64H38l-.56-.56-.88-.83a37.03 37.03 0 0 1-4.6-5.1c-.32.03-.64.04-.97.04h-.07c-.85-.02-1.7-.15-2.55-.38 1.3 2.29 3.4 4.73 6.23 7.44l.86.8.53.54.05.04c3 2.86 5.14 5.58 6.47 8.12 1.2 2.01 2.65 7.15 2.88 7.97l.03.12.03-.12c.23-.82 1.68-5.96 2.87-7.97 1.33-2.54 3.47-5.26 6.47-8.12l.05-.04.53-.53.86-.8c2.82-2.72 4.93-5.16 6.24-7.45.23-.41.44-.82.62-1.22Z"/><path fill="#231F20" d="M48.82 54.73v-.01c0-1.3.22-2.56.64-3.74-.33.19-.64.38-.94.6-1.17.86-2.31 2.01-3.32 3.46a.63.63 0 0 0-.05-.06v-.04l-.01.02-.01-.02v.04a.61.61 0 0 0-.05.06 14.7 14.7 0 0 0-3.31-3.45 9.68 9.68 0 0 0-2.45-1.3c-1.15-.43-2.4-.64-3.7-.64h-.24a9.2 9.2 0 0 0-6.72 2.91 9.81 9.81 0 0 0-2.71 6.2l.1.08c1.08.67 2.03 1.1 2.8 1.33a7.08 7.08 0 0 1 1.94-5.65 6.33 6.33 0 0 1 4.83-2.01 7.32 7.32 0 0 1 1.48.15 8.21 8.21 0 0 1 3.21 1.42c.44.33.82.7 1.14 1.08a8.35 8.35 0 0 1 1.32 2.18l2.36 7.71v-.02l.02.02 2.36-7.71s.42-1.1 1.32-2.18V54.73Z"/><path fill="#231F20" d="m16.5 54.5.04.04.54.52.82.83c3.06 3.02 5.79 5.2 8.34 6.41.43.2.86.38 1.29.53 1.06.38 2.1.59 3.12.6l.43-.01c.4-.01.8-.05 1.2-.1a9.83 9.83 0 0 0 5.4-2.46 8.48 8.48 0 0 0 2.86-5.9c-.25-.26-.53-.5-.84-.7a7.37 7.37 0 0 0-2.05-.93c.05.32.08.66.08 1.01a5.77 5.77 0 0 1-1.99 4.52 7.17 7.17 0 0 1-4.94 1.84h-.15c-.3.01-.63-.02-.98-.09-.88-.17-1.91-.58-3.07-1.24-.33-.19-.67-.4-1.03-.63A35.9 35.9 0 0 1 19.94 54l-.84-.86-.57-.54c-3.34-3.32-6.6-5.73-9.82-7.17 3.23-1.43 6.48-3.84 9.82-7.16l.57-.55.84-.85a35.8 35.8 0 0 1 5.63-4.74V31.89c.02-1.12.26-2.22.67-3.32-2.55 1.21-5.27 3.39-8.34 6.41l-.82.83-.54.52-.04.04c-2.91 2.9-5.68 4.97-8.27 6.25C6.18 43.78.96 45.18.12 45.4l-.12.03.12.03c.84.22 6.06 1.62 8.1 2.78 2.6 1.28 5.37 3.35 8.28 6.25Z"/><path fill="#231F20" d="M32.85 47.77s.76.26 1.64.84c.45-.05.9-.08 1.37-.08h.09c.95 0 1.87.1 2.75.3l-.1-.13c-.86-1.09-2-2.15-3.45-3.1a.62.62 0 0 0 .06-.03h.03l-.02-.02h.02-.03l-.06-.05c1.44-.94 2.6-2 3.45-3.09l.1-.14a8.9 8.9 0 0 0 1.84-5.58c0-.2 0-.4-.02-.6a8.38 8.38 0 0 0-2.9-5.88 10.01 10.01 0 0 0-5.46-2.45l-.33.48c-.54.79-.91 1.5-1.16 2.13 2.06.04 3.64.63 5 1.82a5.7 5.7 0 0 1 2.01 4.5 6.64 6.64 0 0 1-.3 1.99 7.77 7.77 0 0 1-1.7 2.85c-.38.39-.8.71-1.19.97-.88.58-1.64.84-1.64.84l-7.72 2.21h.03l-.03.01 7.72 2.2Z"/><path fill="#231F20" d="M28.6 38a8.91 8.91 0 0 0 5.2 2.73c.43-.33.85-.73 1.16-1.2.33-.5.59-.98.79-1.48l-.4.01a6.12 6.12 0 0 1-4.68-1.95 6.88 6.88 0 0 1-1.64-6.6c.26-.84.72-1.8 1.4-2.85l.68-.98a37.17 37.17 0 0 1 4.6-5.09l.88-.83.56-.55c3.44-3.28 5.93-6.48 7.42-9.65 1.48 3.17 3.97 6.37 7.4 9.64h.01l.56.56.89.83a37.18 37.18 0 0 1 4.6 5.1c.32-.03.64-.05.96-.05h.07c.86.02 1.71.16 2.56.4-1.3-2.3-3.41-4.74-6.23-7.45l-.87-.81-.53-.53-.05-.04c-3-2.86-5.14-5.58-6.47-8.13-1.2-2-2.64-7.14-2.87-7.96L44.57 1l-.03.11c-.23.83-1.68 5.96-2.88 7.97-1.33 2.55-3.47 5.27-6.47 8.12l-.04.05-.54.53-.86.8c-2.82 2.72-4.92 5.16-6.23 7.45-.24.41-.44.82-.62 1.22a9.87 9.87 0 0 0-.93 3.52l-.02.34c0 .3 0 .58.03.87a9.54 9.54 0 0 0 2.63 6.03Z"/><path fill="#231F20" d="m54.37 38.68-.4-.01a8.2 8.2 0 0 1-4.27-1.55 6.7 6.7 0 0 1-1.15-1.1c-.9-1.07-1.32-2.17-1.32-2.17l-2.37-7.71v.02l-.01-.02-2.37 7.71s-.4 1.1-1.31 2.18V36.47c0 1.3-.21 2.56-.63 3.74.32-.19.64-.39.94-.61 1.17-.86 2.31-2 3.32-3.45l.04.06v.03l.02-.02.01.02v-.03l.04-.06a14.7 14.7 0 0 0 3.32 3.45 9.72 9.72 0 0 0 2.45 1.3c1.15.43 2.4.64 3.7.64h.24a9.2 9.2 0 0 0 6.72-2.91 9.81 9.81 0 0 0 2.71-6.21l-.11-.07a11.76 11.76 0 0 0-2.8-1.34l.03.51a7.08 7.08 0 0 1-1.97 5.15 6.33 6.33 0 0 1-4.83 2.01Z"/></svg>
