<?xml version="1.0" encoding="UTF-8"?>
<svg xmlns="http://www.w3.org/2000/svg" xml:space="preserve" id="Layer_1" x="0" y="0" version="1.1" viewBox="0 0 376 189">
  <path d="M138.3 120.3H109c-.5 0-.9.4-.9.9V136c0 .5.4.9.9.9h2v1.3c0 .2.1.5.1.6 0 .1.1.2.1.3v1.4c-.1.1-.2.3-.3.4-.1.2-.1.4-.1.6 0 .3.1.6.3.8.3.4.7.6 1 .7 1.4.6 2.9.7 4.1.7h.1c1.2 0 2.8-.1 4.1-.9.3-.1.7-.3 1-.7.1-.2.2-.5.2-.8 0-.2-.1-.4-.1-.5v-2.1c.1-.2.1-.4.1-.7v-1.1h4.1v1.3c0 .3.1.5.1.6 0 .1.1.2.1.2v1.4c-.1.1-.2.3-.3.4-.1.2-.1.4-.1.6 0 .3.1.6.3.8.3.4.7.6 1 .7 1.4.6 2.9.7 4.1.7h.1c1.2 0 2.8-.1 4.2-.9.3-.1.7-.3 1-.7.1-.2.2-.5.2-.8 0-.2-.1-.4-.1-.5-.1 0-.1-.1-.1-.1v-2c.1-.2.1-.4.1-.7v-1.1h2c.5 0 .9-.4.9-.9v-14.8c0-.4-.4-.8-.9-.8zm-18.5 17.8v.1c-.1.3-.3.6-.7.8-.7.4-1.6.6-2.8.6-1.2 0-2.1-.2-2.8-.6-.1 0-.2-.1-.2-.1l-.3-.3c0-.1-.1-.3-.2-.4v-1.3h7v1.2zm14.7 0v.1c0 .1-.1.2-.2.4l-.3.3c-.1.1-.1.1-.2.1-.7.4-1.6.6-2.8.6-1.2 0-2.1-.2-2.8-.6-.1 0-.2-.1-.2-.1l-.3-.3c0-.1-.1-.3-.2-.4v-1.3h7v1.2zm3-3h-27.6v-13h27.6v13zM181.6 120.3h-29.3c-.5 0-.9.4-.9.9V136c0 .5.4.9.9.9h2v1.3c0 .2.1.4.1.6 0 .1.1.2.1.2v1.4c-.1.1-.2.3-.3.4-.1.2-.1.4-.1.6 0 .3.1.6.3.8.3.4.7.6 1 .7 1.4.6 2.9.7 4.1.7h.1c1.2 0 2.8-.1 4.3-.8.3-.1.7-.3 1-.7.1-.2.2-.5.2-.8 0-.2-.1-.4-.1-.5-.1 0-.1-.1-.1-.1s0-.1-.1-.2v-1.9c.1-.2.1-.4.1-.7v-1.1h4.1v1.3c0 .2.1.4.1.6 0 .1.1.2.1.2v1.5c-.1.1-.2.2-.2.3-.1.2-.1.4-.1.6 0 .3 0 .6.2.8.3.4.7.6 1 .7 1.4.6 2.9.7 4.1.7h.1a9 9 0 0 0 4.3-.9c.3-.1.7-.3 1-.7.1-.2.2-.5.2-.8 0-.2-.1-.4-.1-.5-.1 0-.1-.1-.1-.1s0-.1-.1-.2v-1.8c.1-.2.1-.4.1-.7v-1.1h2c.5 0 .9-.4.9-.9V121c0-.3-.4-.7-.9-.7zm-18.5 17.8v.1c-.1.3-.3.6-.7.8-.7.4-1.6.6-2.8.6-1.2 0-2.1-.2-2.8-.6-.1 0-.2-.1-.2-.1l-.3-.3c0-.1-.1-.3-.2-.4v-1.3h7v1.2zm14.7 0v.1c0 .1-.1.2-.2.4l-.3.3c-.1.1-.1.1-.2.1-.7.4-1.6.6-2.8.6s-2.1-.2-2.8-.6c-.1 0-.2-.1-.2-.1l-.3-.3c0-.1-.1-.3-.2-.4v-1.3h7v1.2zm3-3h-27.6v-13h27.6v13zM224.6 120.3h-29.3c-.5 0-.9.4-.9.9V136c0 .5.4.9.9.9h2v1.3c0 .3.1.5.1.6 0 .1.1.2.1.2v1.6c0 .1-.1.2-.1.2-.1.2-.1.4-.1.6 0 .3 0 .6.2.8.3.4.7.6 1 .7 1.4.6 2.9.7 4.1.7h.1c1.1 0 2.7-.1 4.3-.8.3-.1.7-.3 1-.7.1-.2.2-.5.2-.8 0-.2-.1-.4-.1-.5-.1-.1-.1-.2-.1-.2s-.1-.2-.2-.3v-1.7c.1-.2.1-.4.1-.7v-1.1h4.1v1.3c0 .2.1.5.1.6 0 .1.1.2.1.2v1.5c-.1.1-.2.2-.2.3-.1.2-.1.4-.1.6 0 .3 0 .6.2.8.3.4.7.6 1 .7 1.4.6 2.9.7 4.1.7h.1c1.2 0 2.8-.1 4.4-.6.3-.1.7-.3 1-.7.1-.2.2-.5.2-.8 0-.2-.1-.4-.1-.5-.1-.1-.1-.2-.1-.2s-.1-.2-.2-.3v-1.9c.1-.2.1-.4.1-.7v-1.1h2c.5 0 .9-.4.9-.9V121c0-.3-.4-.7-.9-.7zm-18.5 17.8v.1c-.1.3-.3.6-.7.8-.7.4-1.6.6-2.8.6-1.2 0-2.1-.2-2.8-.6-.1 0-.2-.1-.2-.1l-.3-.3c0-.1-.1-.3-.2-.4v-1.3h7v1.2zm14.7 0v.1c0 .1-.1.2-.2.4l-.3.3c-.1.1-.1.1-.2.1-.7.4-1.6.6-2.8.6s-2.1-.2-2.8-.6c-.1 0-.2-.1-.2-.1l-.3-.3c0-.1-.1-.3-.2-.4v-1.3h7v1.2zm3-3h-27.6v-13h27.6v13zM267.6 120.3h-29.3c-.5 0-.9.4-.9.9V136c0 .5.4.9.9.9h2v1.3c0 .2.1.4.1.6 0 .1.1.2.1.2v1.5c-.1.1-.2.2-.2.4-.1.2-.1.4-.1.6 0 .3 0 .6.2.8.3.4.7.6 1 .7 1.4.6 2.9.7 4.1.7h.1c1.2 0 2.8-.1 4.2-.9.3-.1.7-.3 1-.7.1-.2.2-.5.2-.8 0-.2-.1-.4-.1-.5v-.1s0-.1-.1-.2v-1.8c.1-.2.1-.4.1-.7v-1.1h4.1v1.3c0 .3.1.5.1.6 0 .1.1.2.1.2v1.5c-.1.1-.2.2-.2.4-.1.2-.1.4-.1.6 0 .3 0 .6.2.8.3.4.7.6 1 .7 1.4.6 2.9.7 4.1.7h.1c1.2 0 2.8-.1 4.2-.9.3-.1.7-.3 1-.7.1-.2.2-.5.2-.8 0-.2-.1-.4-.1-.5v-.1s0-.1-.1-.2v-1.8c.1-.2.1-.4.1-.7v-1.1h2c.5 0 .9-.4.9-.9v-14.8c0-.5-.4-.9-.9-.9zm-18.5 17.8v.1c-.1.3-.3.6-.7.8-.7.4-1.6.6-2.8.6-1.2 0-2.1-.2-2.8-.6-.1 0-.2-.1-.2-.1l-.3-.3c0-.1-.1-.3-.2-.4v-1.3h7v1.2zm14.7 0v.1c0 .1-.1.2-.2.4l-.3.3c-.1.1-.1.1-.2.1-.7.4-1.6.6-2.8.6s-2.1-.2-2.8-.6c-.1 0-.2-.1-.2-.1l-.3-.3c0-.1-.1-.3-.2-.4v-1.3h7v1.2zm3-3h-27.6v-13h27.6v13zM138.3 82.7H109c-.5 0-.9.4-.9.9v14.8c0 .5.4.9.9.9h2v1.3c0 .2.1.4.1.6 0 .1.1.2.1.3v1.4c-.1.1-.2.3-.3.5-.1.2-.1.4-.1.6 0 .3.1.5.3.8.3.4.7.6 1 .7 1.4.6 2.9.7 4.1.7h.1c1.2 0 2.8-.1 4.2-.9.2-.1.6-.3.9-.7.1-.2.2-.5.2-.8 0-.2-.1-.4-.1-.5v-2c.1-.2.1-.4.1-.7v-1.2h4.1v1.3c0 .3.1.5.1.6 0 .1.1.2.1.3v1.4c-.1.1-.2.3-.3.5-.1.2-.1.4-.1.6 0 .3.1.5.3.8.3.4.7.6 1 .7 1.4.6 2.9.7 4.1.7h.1a9 9 0 0 0 4.3-.9c.2-.1.6-.3.9-.7.1-.2.2-.5.2-.8 0-.2-.1-.4-.1-.5-.1 0-.1-.1-.1-.1v-1.9c.1-.2.1-.4.1-.7v-1.2h2c.5 0 .9-.4.9-.9v-15c0-.5-.4-.9-.9-.9zm-18.5 17.9v.2c0 .1-.1.1-.1.2-.1.1-.2.2-.2.3-.1.1-.2.2-.3.2-.7.4-1.6.6-2.8.6-1.2 0-2.1-.2-2.8-.6-.1 0-.1-.1-.2-.1-.1-.2-.2-.3-.4-.4 0-.1-.1-.3-.2-.4v-1.3h7v1.3zm14.7 0V100.9c-.2.1-.4.3-.5.5-.1 0-.1.1-.2.1-.7.4-1.6.6-2.8.6-1.2 0-2.1-.2-2.8-.6-.1 0-.1-.1-.2-.1-.1-.2-.2-.3-.4-.4 0-.1-.1-.3-.2-.4v-1.3h7v1.3zm3-3.1h-27.6v-13h27.6v13zM181.6 82.7h-29.3c-.5 0-.9.4-.9.9v14.8c0 .5.4.9.9.9h2v1.3c0 .2.1.4.1.6 0 .1.1.2.1.3v1.4c-.1.1-.2.3-.3.5-.1.2-.1.4-.1.6 0 .3.1.5.3.8.3.4.7.6 1 .7 1.4.6 2.9.7 4.1.7h.1c1.2 0 2.8-.1 4.4-.9.2-.1.6-.3.9-.7.1-.2.2-.5.2-.8 0-.2-.1-.4-.1-.5-.1 0-.1-.1-.1-.1s0-.1-.1-.2v-1.7c.1-.2.1-.4.1-.7v-1.2h4.1v1.3c0 .2.1.4.1.6 0 .1.1.2.1.2v1.4c-.1.1-.2.3-.3.5-.1.2-.1.4-.1.6 0 .3.1.6.3.8.3.4.7.6 1 .7 1.4.6 2.9.7 4.1.7h.1c1.2 0 2.8-.1 4.2-.9.2-.1.6-.3.9-.7.1-.2.2-.5.2-.8 0-.2-.1-.4-.1-.5v-2c.1-.2.1-.4.1-.7v-1.2h2c.5 0 .9-.4.9-.9V83.6c0-.5-.4-.9-.9-.9zm-18.5 17.9v.2c0 .1-.1.1-.1.2-.1.1-.2.2-.2.3-.1.1-.2.2-.3.2-.7.4-1.6.6-2.8.6-1.2 0-2.1-.2-2.8-.6-.1 0-.1-.1-.2-.1-.1-.2-.2-.3-.4-.4 0-.1-.1-.3-.2-.4v-1.3h7v1.3zm14.7 0V100.9c-.2.1-.4.3-.5.5-.1 0-.1.1-.2.1-.7.4-1.6.6-2.8.6s-2.1-.2-2.8-.6c-.1 0-.1-.1-.2-.1-.1-.2-.2-.3-.4-.4 0-.1-.1-.3-.2-.4v-1.3h7v1.3zm3-3.1h-27.6v-13h27.6v13zM224.6 82.7h-29.3c-.5 0-.9.4-.9.9v14.8c0 .5.4.9.9.9h2v1.3c0 .2.1.5.1.6 0 .1.1.2.1.3v1.5c-.1.1-.2.2-.2.4-.1.2-.1.4-.1.6 0 .3.1.5.3.8.3.4.7.6 1 .7 1.4.6 2.9.7 4.1.7h.1c1.1 0 2.7-.1 4.3-.9.2-.1.6-.3.9-.7.1-.2.2-.5.2-.8 0-.2-.1-.4-.1-.5-.1 0-.1-.1-.1-.1s0-.1-.1-.2v-1.7c.1-.2.1-.4.1-.7v-1.2h4.1v1.3c0 .2.1.5.1.6 0 .1.1.2.1.3v1.4c-.1.1-.2.3-.3.5-.1.2-.1.4-.1.6 0 .3.1.5.3.8.3.4.7.6 1 .7 1.4.6 2.9.7 4.1.7h.1c1.2 0 2.8-.1 4.4-.9.2-.1.6-.3.9-.7.1-.2.2-.5.2-.8 0-.2-.1-.4-.1-.5-.1 0-.1-.1-.1-.1s0-.1-.1-.2v-1.7c.1-.2.1-.4.1-.7v-1.2h2c.5 0 .9-.4.9-.9v-15c0-.5-.4-.9-.9-.9zm-18.5 17.9v.2c0 .1-.1.1-.1.2-.1.1-.2.2-.2.3-.1.1-.2.2-.3.2-.7.4-1.6.6-2.8.6-1.2 0-2.1-.2-2.8-.6-.1 0-.1-.1-.2-.1-.1-.2-.2-.3-.4-.4 0-.1-.1-.3-.2-.4v-1.3h7v1.3zm14.7 0V100.9c-.2.1-.4.3-.5.5-.1 0-.1.1-.2.1-.7.4-1.6.6-2.8.6s-2.1-.2-2.8-.6c-.1 0-.1-.1-.2-.1-.1-.2-.2-.3-.4-.4 0-.1-.1-.3-.2-.4v-1.3h7v1.3zm3-3.1h-27.6v-13h27.6v13zM267.6 82.7h-29.3c-.5 0-.9.4-.9.9v14.8c0 .5.4.9.9.9h2v1.3c0 .2.1.4.1.6 0 .1.1.2.1.3v1.4c-.1.1-.2.3-.3.4-.1.2-.1.4-.1.6 0 .3.1.6.3.8.3.4.7.6 1 .7 1.4.6 2.9.7 4.1.7h.1c1.2 0 2.8-.1 4.2-.9.2-.1.6-.3.9-.7.1-.2.2-.5.2-.8 0-.2-.1-.4-.1-.5v-2c.1-.2.1-.4.1-.7v-1.2h4.1v1.3c0 .2.1.5.1.6 0 .1.1.2.1.2v1.4c-.1.1-.2.3-.3.5-.1.2-.1.4-.1.6 0 .3.1.6.3.8.3.4.7.6 1 .7 1.4.6 2.9.7 4.1.7h.1c1.2 0 2.8-.1 4.2-.9.2-.1.6-.3.9-.7.1-.2.2-.5.2-.8 0-.2-.1-.4-.1-.5v-2c.1-.2.1-.4.1-.7v-1.2h2c.5 0 .9-.4.9-.9V83.6c0-.5-.4-.9-.9-.9zm-18.5 17.9v.2c0 .1-.1.1-.1.2-.1.1-.2.2-.2.3-.1.1-.2.2-.3.2-.7.4-1.6.6-2.8.6-1.2 0-2.1-.2-2.8-.6-.1 0-.1-.1-.2-.1-.1-.2-.2-.3-.4-.4 0-.1-.1-.3-.2-.4v-1.3h7v1.3zm14.7 0V100.9c-.2.1-.4.3-.5.5-.1 0-.1.1-.2.1-.7.4-1.6.6-2.8.6s-2.1-.2-2.8-.6c-.1 0-.1-.1-.2-.1-.1-.2-.2-.3-.4-.4 0-.1-.1-.3-.2-.4v-1.3h7v1.3zm3-3.1h-27.6v-13h27.6v13zM138.3 45.1H109c-.5 0-.9.4-.9.9v14.8c0 .5.4.9.9.9h2V63c0 .2.1.5.1.6 0 .1.1.2.1.3v1.4c-.1.1-.2.3-.3.5-.1.2-.1.4-.1.6 0 .3.1.5.3.8.3.4.7.6 1 .7 1.4.6 2.9.7 4.1.7h.1a9 9 0 0 0 4.3-.9c.2-.1.6-.3.9-.7.1-.2.2-.5.2-.8 0-.2-.1-.4-.1-.5-.1 0-.1-.1-.1-.1v-1.9c.1-.2.1-.4.1-.7v-1.2h4.1V63c0 .3.1.5.1.6 0 .1.1.2.1.2v1.4c-.1.1-.2.3-.3.5-.1.2-.1.4-.1.6 0 .3.1.5.3.8.3.4.7.6 1 .7 1.4.6 2.9.7 4.1.7h.1a9 9 0 0 0 4.3-.9c.2-.1.6-.3.9-.7.1-.2.2-.5.2-.8 0-.2-.1-.4-.1-.5-.1 0-.1-.1-.1-.1v-1.9c.1-.2.1-.4.1-.7v-1.2h2c.5 0 .9-.4.9-.9V46c0-.5-.4-.9-.9-.9zM119.8 63v.2c0 .1-.1.1-.1.2-.1.1-.2.2-.2.3-.1.1-.2.2-.3.2-.7.4-1.6.6-2.8.6-1.2 0-2.1-.2-2.8-.6-.1 0-.1-.1-.2-.1-.1-.2-.2-.3-.4-.4 0-.1-.1-.3-.2-.4v-1.3h7V63zm14.7 0V63.3c-.2.1-.4.3-.5.5-.1 0-.1.1-.2.1-.7.4-1.6.6-2.8.6-1.2 0-2.1-.2-2.8-.6-.1 0-.1-.1-.2-.1-.1-.2-.2-.3-.4-.4 0-.1-.1-.3-.2-.4v-1.3h7V63zm3-3.1h-27.6v-13h27.6v13zM181.6 45.1h-29.3c-.5 0-.9.4-.9.9v14.8c0 .5.4.9.9.9h2V63c0 .2.1.4.1.6 0 .1.1.2.1.2v1.4c-.1.1-.2.3-.3.5-.1.2-.1.4-.1.6 0 .3.1.5.3.8.3.4.7.6 1 .7 1.4.6 2.9.7 4.1.7h.1c1.2 0 2.8-.1 4.4-.9.2-.1.6-.3.9-.7.1-.2.2-.5.2-.8 0-.2-.1-.4-.1-.5-.1 0-.1-.1-.1-.1s0-.1-.1-.2v-1.7c.1-.2.1-.4.1-.7v-1.2h4.1V63c0 .2.1.4.1.6 0 .1.1.2.1.2v1.4c-.1.1-.2.3-.3.5-.1.2-.1.4-.1.6 0 .3.1.6.3.8.3.4.7.6 1 .7 1.4.6 2.9.7 4.1.7h.1c1.2 0 2.8-.1 4.2-.9.3-.1.7-.3 1-.7.1-.2.2-.5.2-.8 0-.2-.1-.4-.1-.5-.1 0-.1-.1-.1-.1v-1.9c.1-.2.1-.4.1-.7v-1.2h2c.5 0 .9-.4.9-.9V46c0-.5-.4-.9-.9-.9zM163.1 63v.2c0 .1-.1.1-.1.2-.1.1-.2.2-.2.3-.1.1-.2.2-.3.2-.7.4-1.6.6-2.8.6-1.2 0-2.1-.2-2.8-.6-.1 0-.1-.1-.2-.1-.1-.2-.2-.3-.4-.4 0-.1-.1-.3-.2-.4v-1.3h7V63zm14.7 0V63.3c-.2.1-.4.3-.5.5-.1 0-.1.1-.2.1-.7.4-1.6.6-2.8.6s-2.1-.2-2.8-.6c-.1 0-.1-.1-.2-.1-.1-.2-.2-.3-.4-.4 0-.1-.1-.3-.2-.4v-1.3h7V63zm3-3.1h-27.6v-13h27.6v13zM224.6 45.1h-29.3c-.5 0-.9.4-.9.9v14.8c0 .5.4.9.9.9h2V63c0 .3.1.5.1.6 0 .1.1.2.1.2v1.5c-.1.1-.2.2-.2.4-.1.2-.1.4-.1.6 0 .3.1.5.3.8.3.4.7.6 1 .7 1.4.6 2.9.7 4.1.7h.1c1.1 0 2.7-.1 4.3-.8.2-.1.6-.3.9-.7.1-.2.2-.5.2-.8 0-.2-.1-.4-.1-.5-.1-.1-.1-.2-.1-.2s0-.1-.1-.2v-1.7c.1-.2.1-.4.1-.7v-1.2h4.1V63c0 .3.1.5.1.6 0 .1.1.2.1.2v1.4c-.1.1-.2.3-.3.5-.1.2-.1.4-.1.6 0 .3.1.5.3.8.3.4.7.6 1 .7 1.4.6 2.9.7 4.1.7h.1c1.2 0 2.8-.1 4.3-.8.3-.1.7-.3 1-.7.1-.2.2-.5.2-.8 0-.2-.1-.4-.1-.5-.1-.1-.1-.2-.1-.2s0-.1-.1-.2v-1.7c.1-.2.1-.4.1-.7v-1.2h2c.5 0 .9-.4.9-.9V46c0-.5-.4-.9-.9-.9zM206.1 63v.2c0 .1-.1.1-.1.2-.1.1-.2.2-.2.3-.1.1-.2.2-.3.2-.7.4-1.6.6-2.8.6-1.2 0-2.1-.2-2.8-.6-.1 0-.1-.1-.2-.1-.1-.2-.2-.3-.4-.4 0-.1-.1-.3-.2-.4v-1.3h7V63zm14.7 0V63.3c-.2.1-.4.3-.5.5-.1 0-.1.1-.2.1-.7.4-1.6.6-2.8.6s-2.1-.2-2.8-.6c-.1 0-.1-.1-.2-.1-.1-.2-.2-.3-.4-.4 0-.1-.1-.3-.2-.4v-1.3h7V63zm3-3.1h-27.6v-13h27.6v13zM267.6 45.1h-29.3c-.5 0-.9.4-.9.9v14.8c0 .5.4.9.9.9h2V63c0 .2.1.4.1.6 0 .1.1.2.1.2v1.4c-.1.1-.2.3-.3.4-.1.2-.1.4-.1.6 0 .3.1.6.3.8.3.4.7.6 1 .7 1.4.6 2.9.7 4.1.7h.1c1.2 0 2.8-.1 4.2-.9.2-.1.6-.3.9-.7.1-.2.2-.5.2-.8 0-.2-.1-.4-.1-.5v-2c.1-.2.1-.4.1-.7v-1.2h4.1V63c0 .3.1.5.1.6 0 .1.1.2.1.2v1.4c-.1.1-.2.3-.3.5-.1.2-.1.4-.1.6 0 .3.1.6.3.8.3.4.7.6 1 .7 1.4.6 2.9.7 4.1.7h.1c1.2 0 2.8-.1 4.2-.9.2-.1.6-.3.9-.7.1-.2.2-.5.2-.8 0-.2-.1-.4-.1-.5v-2c.1-.2.1-.4.1-.7v-1.2h2c.5 0 .9-.4.9-.9V46c0-.5-.4-.9-.9-.9zM249.1 63v.2c0 .1-.1.1-.1.2-.1.1-.2.2-.2.3-.1.1-.2.2-.3.2-.7.4-1.6.6-2.8.6-1.2 0-2.1-.2-2.8-.6-.1 0-.1-.1-.2-.1-.1-.2-.2-.3-.4-.4 0-.1-.1-.3-.2-.4v-1.3h7V63zm14.7 0V63.3c-.2.1-.4.3-.5.5-.1 0-.1.1-.2.1-.7.4-1.6.6-2.8.6s-2.1-.2-2.8-.6c-.1 0-.1-.1-.2-.1-.1-.2-.2-.3-.4-.4 0-.1-.1-.3-.2-.4v-1.3h7V63zm3-3.1h-27.6v-13h27.6v13z" class="st0"></path>
</svg>
