<?xml version="1.0" encoding="UTF-8"?>
<svg xmlns="http://www.w3.org/2000/svg" xmlns:xlink="http://www.w3.org/1999/xlink" xml:space="preserve" id="Layer_1" x="0" y="0" version="1.1" viewBox="0 0 376 129">
  <defs>
    <filter id="Adobe_OpacityMaskFilter" filterUnits="userSpaceOnUse">
      <feColorMatrix values="1 0 0 0 0 0 1 0 0 0 0 0 1 0 0 0 0 0 1 0"></feColorMatrix>
    </filter>
  </defs>
  <mask id="mask0_858_14996_00000108299259231315250910000003502715158901292713_" maskUnits="userSpaceOnUse">
    <path fill="#d9d9d9" d="M0 0h376v129H0z" filter="url(#Adobe_OpacityMaskFilter)"></path>
  </mask>
  <defs>
    <path id="SVGID_1_" d="M128 30h120v70H128z"></path>
  </defs>
  <clipPath id="SVGID_00000065060441048330042840000007932079401742076343_">
    <use xlink:href="#SVGID_1_" overflow="visible"></use>
  </clipPath>
  <g clip-path="url(#SVGID_00000065060441048330042840000007932079401742076343_)">
    <path d="M141.2 75.7h-9.6c-.1 0-.3 0-.4-.1-.6-.2-1-.6-1.2-1.1-.1-.2-.1-.5-.1-.6 0-.2.1-.4.1-.6.2-.5.5-.8.9-1h.1c.2-.1.3-.1.6-.1h10c.5.1.9.4 1.1.7.2.3.3.6.3 1 0 .3 0 .6-.2.9-.3.5-.9.9-1.6.9zM141.2 57.9h-9.5c-.2 0-.4 0-.6-.1-.6-.2-1-.8-1.1-1.4-.1-.4 0-.9.3-1.3a2 2 0 0 1 1.2-.8H141.8c.5.2.9.5 1.1 1 .3.5.2 1.2-.1 1.7-.4.5-1 .9-1.6.9z" class="st3"></path>
    <path d="M132.1 74.1h-.4c-.8 0-1.1 0-1.4-.1-.6-.1-1.2-.5-1.6-1.1-.3-.4-.5-1-.6-1.6V58.4c0-.3.1-.5.3-.8.5-1 1.5-1.6 2.5-1.6h.4c.8 0 1.2 0 1.4.1.3.1.7.3 1 .6.3.3.5.7.6 1.2v14c0 1.2-.5 1.8-1 2.1-.3.2-.7.3-1 .3l-.2-.2zm-.2-2h.4v-14c0-.1 0-.2-.1-.2h-1.4c-.2 0-.5.2-.7.5-.1.1-.1.2-.1.3V71.2c0 .2.1.4.2.6.1.2.3.3.5.3h1.2zM179 44.9c-.2 0-.5-.1-.7-.2-.6-.3-1-.9-1-1.6v-9.5c0-.1 0-.3.1-.4.2-.6.6-1 1.1-1.2.7-.3 1-.1 1.2 0 .5.2.8.5 1 .9v.1c0 .1.1.3.1.6V43.5c-.1.5-.4.9-.8 1.1-.3.2-.6.3-1 .3.1 0 0 0 0 0zM197 44.9c-.3 0-.7-.1-.9-.3-.5-.3-.9-.9-.9-1.5V33.7c0-.2 0-.4.1-.6.2-.6.8-1 1.4-1.1.5-.1.9 0 1.3.3s.7.7.8 1.2V43.8c-.2.5-.5.9-1 1.1-.3-.1-.6 0-.8 0z" class="st3"></path>
    <path d="M194.7 36.3h-13.5c-1.2 0-1.8-.5-2.1-1-.2-.3-.3-.7-.3-1v-.7c0-.8 0-1.1.1-1.4.1-.6.6-1.2 1.1-1.6.4-.3 1-.5 1.6-.6h13c.3 0 .6.1.9.3 1 .5 1.7 1.5 1.7 2.5v.4c0 .8 0 1.2-.1 1.4-.1.3-.3.7-.6 1-.3.3-.7.5-1.2.6-.2.1-.3.1-.6.1zm-13.9-2.1h14.1c.1 0 .2-.1.2-.1v-1.4c0-.2-.2-.5-.5-.7-.1-.1-.2-.1-.3-.1H182c-.3 0-.6.1-.8.2-.2.1-.3.3-.3.5V34l-.1.2zM208.8 44.9c-.2 0-.5-.1-.7-.2-.6-.3-1-.9-1-1.6V33.5c0-.1 0-.3.1-.4.2-.6.6-1 1.1-1.2.7-.3 1-.1 1.2 0 .5.2.8.5 1 .9v.1c0 .1.1.3.1.6V43.4c-.1.5-.4.9-.8 1.1-.3.2-.6.3-1 .3.1.1 0 .1 0 .1zM226.8 44.9c-.3 0-.7-.1-.9-.3-.5-.3-.9-.9-.9-1.5V33.7c0-.2 0-.4.1-.6.2-.6.8-1 1.4-1.1.4-.1.9 0 1.3.3s.7.7.8 1.2V43.8c-.2.5-.5.9-1 1.1-.3-.1-.6 0-.8 0z" class="st3"></path>
    <path d="M224.5 36.3H211c-1.2 0-1.8-.5-2.1-1-.2-.3-.3-.7-.3-1v-.7c0-.8 0-1.1.1-1.4.1-.6.5-1.2 1.1-1.6.4-.3 1-.5 1.6-.6h13c.3 0 .5.1.8.3 1 .5 1.7 1.5 1.7 2.5v.4c0 .8 0 1.2-.1 1.4-.1.3-.3.7-.6 1-.3.3-.7.5-1.2.6-.1.1-.3.1-.5.1zm-13.8-2.1h14.1c.2 0 .2-.1.2-.1v-1.4c0-.2-.2-.5-.5-.7-.1-.1-.2-.1-.3-.1h-12.5c-.3 0-.6.1-.8.2-.2.1-.3.3-.3.5V34l.1.2c-.1 0-.1 0 0 0zM164.9 36.3h-13.5c-1.2 0-1.8-.5-2.1-1-.2-.3-.3-.7-.3-1v-.7c0-.7 0-1.1.1-1.4.1-.6.6-1.2 1.1-1.6.4-.3 1-.5 1.6-.6h13c.3 0 .5.1.8.3 1 .5 1.7 1.5 1.7 2.5v.4c0 .8 0 1.2-.1 1.4-.1.3-.3.7-.6 1-.3.3-.7.5-1.2.6-.1.1-.2.1-.5.1zM151 34.2h14.1c.1 0 .2 0 .2-.1v-1.4c0-.2-.2-.5-.5-.7-.1-.1-.2-.1-.3-.1H152c-.3 0-.6.1-.8.2-.2.1-.3.3-.3.5V34l.1.2z" class="st3"></path>
    <path d="M167.2 44.9c-.3 0-.7-.1-.9-.3-.5-.3-.9-.9-.9-1.5v-9.5c0-.2 0-.4.1-.6.2-.6.8-1 1.4-1.1.4-.1.9 0 1.3.3s.7.7.8 1.2V43.7c-.2.5-.5.9-1 1.1-.3 0-.6.1-.8.1zM149.2 44.9c-.2 0-.5-.1-.7-.2-.6-.3-1-.9-1-1.6v-9.5c0-.1 0-.3.1-.4.2-.6.6-1 1.1-1.2.7-.3 1-.1 1.2 0 .5.2.8.5 1 .9.1.2.1.4.1.7V43.5c-.1.5-.4.9-.8 1.1-.3.2-.6.3-1 .3.1 0 0 0 0 0z" class="st3"></path>
    <path d="M232.7 85.8h-89.4c-.6 0-1-.4-1-1V45.2c0-.6.4-1 1-1h89.4c.6 0 1 .4 1 1v39.6c0 .5-.4 1-1 1zm-88.4-2h87.4V46.2h-87.4v37.6z" class="st3"></path>
    <path d="M244.4 57.9h-10c-.5-.1-.9-.4-1.1-.8-.2-.3-.3-.6-.3-1 0-.3 0-.6.2-.9.3-.6.9-1 1.6-1h9.6c.1 0 .3 0 .4.1.6.2 1 .6 1.2 1.1.1.3.1.5.1.7 0 .2 0 .4-.1.6-.2.4-.5.8-.9 1h-.1c-.1.1-.3.2-.6.2zM244.5 75.7h-10.1c-.5-.2-.9-.5-1.1-1-.3-.5-.2-1.2.1-1.7.3-.6 1.1-1 1.7-.8h9.3c.2 0 .4 0 .6.1.6.2 1 .8 1.1 1.4.1.4 0 .9-.3 1.3a2 2 0 0 1-1.2.8c0-.1 0-.1-.1-.1z" class="st3"></path>
    <path d="M244.2 74.1c-.4 0-.6 0-.8-.1-.4-.1-.8-.3-1-.6-.3-.3-.5-.7-.6-1.2V58.3c0-1.2.5-1.8 1-2.1.3-.2.7-.3 1-.3h.7c.8 0 1.1 0 1.4.1.6.1 1.2.5 1.6 1.1.3.4.5 1 .6 1.5v13c0 .3-.1.6-.3.9-.5 1-1.5 1.6-2.5 1.6h-1.1zm-.3-16.2h-.1v14c0 .1 0 .2.1.2h1.4c.2 0 .5-.2.7-.5 0-.1.1-.2.1-.3V58.8c0-.2-.1-.4-.2-.6-.1-.2-.3-.3-.5-.3h-1.5zm4.1.9zM196.9 98.1c-.2 0-.4-.1-.6-.1-.5-.2-.8-.5-1-.9V97c0-.1-.1-.3-.1-.6V86.5c.1-.5.4-.9.8-1.1.3-.2.6-.3 1-.3.3 0 .6 0 .9.2.6.3 1 .9 1 1.6v9.5c0 .1 0 .3-.1.4-.2.6-.6 1-1.1 1.2-.4.1-.6.1-.8.1zm.8-11.2zM179 98.1c-.4 0-.7-.1-1-.3a2 2 0 0 1-.8-1.2V86.4c.2-.6.5-1 1-1.2.5-.3 1.2-.2 1.7.1.5.3.9.9.9 1.5V96.2c0 .2 0 .4-.1.6-.2.6-.8 1-1.4 1.1-.1.2-.2.2-.3.2z" class="st3"></path>
    <path d="M194.2 100h-12.8c-.3 0-.6-.1-.9-.3-1-.5-1.6-1.5-1.6-2.5v-.5c0-.8 0-1.1.1-1.4.1-.3.3-.7.6-1 .3-.3.7-.5 1.2-.6h14.1c1.2 0 1.8.5 2.1 1 .2.2.3.6.3 1V96.3c0 .8 0 1.2-.1 1.4-.1.6-.5 1.2-1.1 1.6-.4.3-1 .5-1.6.6-.2.1-.2.1-.3.1zm-13-4.3h-.1c-.1 0-.2.1-.2.1v1.4c0 .2.2.5.5.7.1.1.2.1.3.1H194c.3 0 .6-.1.8-.2.2-.1.3-.3.3-.5v-1.5h-.4l-13.5-.1zM167.1 98.1c-.2 0-.4-.1-.6-.1-.5-.2-.8-.5-1-.9V97c0-.1-.1-.3-.1-.6V86.5c.1-.5.4-.9.8-1.1.3-.2.6-.3 1-.3.3 0 .6 0 .9.2.6.3 1 .9 1 1.6v9.5c0 .2 0 .3-.1.4-.2.6-.6 1-1.1 1.2-.4.1-.7.1-.8.1zm.8-11.2zM149.2 98.1c-.4 0-.7-.1-1-.3a2 2 0 0 1-.8-1.2V86.3c.2-.5.5-.9 1-1.1.5-.3 1.2-.2 1.7.1.5.3.9.9.9 1.5v9.5c0 .2 0 .4-.1.6-.2.6-.8 1-1.4 1.1-.1.1-.2.1-.3.1z" class="st3"></path>
    <path d="M164.4 100h-12.8c-.3 0-.6-.1-.9-.3-1-.5-1.6-1.5-1.6-2.5v-.5c0-.8 0-1.1.1-1.4.1-.3.3-.7.6-1 .3-.3.7-.5 1.2-.6h14.1c1.2 0 1.8.5 2.1 1 .2.3.3.7.3 1v.7c0 .8 0 1.1-.1 1.4-.1.6-.5 1.2-1.1 1.6-.4.3-1 .5-1.6.6h-.3zm-13-4.3h-.1c-.1 0-.2 0-.2.1v1.4c0 .2.2.5.5.7.1.1.2.1.3.1h12.5c.3 0 .6-.1.8-.2.2-.1.3-.3.3-.5v-1.5h-.4l-13.7-.1zM224 100h-12.8c-.3 0-.6-.1-.9-.3-1-.5-1.6-1.5-1.6-2.5v-.4c0-.8 0-1.2.1-1.4.1-.3.3-.7.6-1 .3-.3.7-.5 1.2-.6h14.1c1.2 0 1.8.5 2.1 1 .2.3.3.7.3 1v.7c0 .8 0 1.1-.1 1.4-.1.6-.5 1.2-1.1 1.6-.4.3-1 .5-1.6.6-.2-.1-.2-.1-.3-.1zm-13-4.3c-.1 0-.1 0 0 0-.2 0-.3.1-.3.1v1.4c0 .2.2.5.5.7.1.1.2.1.3.1H224c.3 0 .6-.1.8-.2.2-.1.3-.3.3-.5v-1.5h-.4l-13.7-.1z" class="st3"></path>
    <path d="M208.8 98.1c-.4 0-.7-.1-1-.3a2 2 0 0 1-.8-1.2V86.3c.2-.5.5-.9 1-1.1.5-.3 1.2-.2 1.7.1.5.3.9.9.9 1.5V96.2c0 .1 0 .4-.1.6-.2.6-.7 1-1.4 1.1-.1.2-.2.2-.3.2zM226.7 98.1c-.2 0-.4-.1-.6-.1-.4-.2-.8-.5-1-.9V97c0-.1-.1-.3-.1-.6V86.5c.1-.5.4-.9.8-1.1.3-.2.6-.3 1-.3.3 0 .6 0 .9.2.6.3 1 .9 1 1.6v9.5c0 .1 0 .3-.1.4-.2.6-.6 1-1.1 1.2-.4.1-.6.1-.8.1zm.8-11.2zM232.7 57.5a1 1 0 0 1-1-1c0-.6.4-1 1-1h1.4c.5 0 1 .4 1 1s-.4 1-1 1h-1.4zM234.1 74.5h-1.5a1 1 0 0 1-1-1c0-.5.5-1 1-1h1.5c.6 0 1 .5 1 1 0 .6-.4 1-1 1zM141.9 74.5a1 1 0 0 1-1-1c0-.6.4-1 1-1h1.4c.6 0 1 .4 1 1s-.4 1-1 1h-1.4zM143.3 57.5h-1.5a1 1 0 0 1-1-1c0-.5.5-1 1-1h1.5a1 1 0 0 1 0 2zM179.4 46.2a1 1 0 0 1-1-1v-1.4c0-.6.4-1 1-1 .5 0 1 .4 1 1v1.4c0 .6-.4 1-1 1zM196.6 46.2a1 1 0 0 1-1-1v-1.4c0-.5.5-1 1-1 .6 0 1 .5 1 1v1.4c0 .6-.5 1-1 1zM209.2 46.2a1 1 0 0 1-1-1v-1.4c0-.6.4-1 1-1 .5 0 1 .4 1 1v1.4c0 .6-.4 1-1 1zM226.4 46.2a1 1 0 0 1-1-1v-1.4c0-.5.5-1 1-1 .6 0 1 .5 1 1v1.4c0 .6-.5 1-1 1zM149.6 46.2a1 1 0 0 1-1-1v-1.4c0-.6.4-1 1-1 .5 0 1 .4 1 1v1.4c0 .6-.4 1-1 1zM166.8 46.2a1 1 0 0 1-1-1v-1.4c0-.5.5-1 1-1 .6 0 1 .5 1 1v1.4c0 .6-.5 1-1 1zM196.6 87.2a1 1 0 0 1-1-1v-1.4c0-.6.4-1 1-1 .5 0 1 .4 1 1v1.4c0 .5-.5 1-1 1zM179.4 87.2a1 1 0 0 1-1-1v-1.4c0-.5.5-1 1-1 .6 0 1 .5 1 1v1.4c0 .6-.4 1-1 1zM166.8 87.2a1 1 0 0 1-1-1v-1.4c0-.6.4-1 1-1 .5 0 1 .4 1 1v1.4c0 .5-.5 1-1 1zM149.6 87.2a1 1 0 0 1-1-1v-1.4c0-.5.5-1 1-1 .6 0 1 .5 1 1v1.4c0 .6-.4 1-1 1z" class="st3"></path>
    <path d="M226.4 87.2a1 1 0 0 1-1-1v-1.4c0-.6.4-1 1-1 .5 0 1 .4 1 1v1.4c0 .5-.5 1-1 1zM209.2 87.2a1 1 0 0 1-1-1v-1.4c0-.5.5-1 1-1 .6 0 1 .5 1 1v1.4c0 .6-.4 1-1 1z" class="st3"></path>
  </g>
</svg>
