<?xml version="1.0" encoding="UTF-8"?>
<svg xmlns="http://www.w3.org/2000/svg" viewBox="0 0 376 243">
  <defs></defs>
  <g id="Layer_2">
    <path d="M104.7 98.9c-.2.5-.8 2.1 0 3.4.9 1.2 2.6 1.2 3.1 1.4h10.3c1.7 0 3.1-.8 3.5-2.1.3-.8.3-1.5 0-2.1 0 0-.2-.3-.3-.5 0-.5.2-.9.2-1.5v-.9c0-2.6.3-5.2 0-7.8-.3-2.3-1.8-3.7-4-3.7h-9.2c-2.3 0-4 2.1-4 4.9v2.1c0 2.1 0 4.1.5 6.4v.5Zm2.3-6.8v-2.3c0-1.2.6-2.3 1.4-2.3h9c.8 0 1.2.3 1.4 1.4.3 2.5.3 4.9.2 7.4v.9c0 .8-.6 1.4-1.8 1.5h-6.4c-1.4 0-2.5 0-3.4-.6v-.6c-.5-1.8-.5-3.7-.3-5.7v.3h-.1ZM134.7 98.9c-.2.5-.8 2.1 0 3.4.9 1.2 2.6 1.2 3.1 1.4h10.3c1.7 0 3.1-.8 3.5-2.1.3-.8.3-1.5 0-2.1 0 0-.2-.3-.3-.5 0-.5.2-.9.2-1.5v-.9c0-2.6.3-5.2 0-7.8-.3-2.3-1.8-3.7-4-3.7h-9.2c-2.3 0-4 2.1-4 4.9v2.1c0 2.1 0 4.1.5 6.4v.5Zm2.3-6.8v-2.3c0-1.2.6-2.3 1.4-2.3h9c.8 0 1.2.3 1.4 1.4.3 2.5.3 4.9.2 7.4v.9c0 .8-.6 1.4-1.8 1.5h-6.4c-1.4 0-2.5 0-3.4-.6v-.6c-.5-1.8-.5-3.7-.3-5.7v.3ZM164.7 98.9c-.2.5-.8 2.1 0 3.4.9 1.2 2.6 1.2 3.1 1.4h10.3c1.7 0 3.1-.8 3.5-2.1.3-.8.3-1.5 0-2.1 0 0-.2-.3-.3-.5 0-.5.2-.9.2-1.5v-.9c0-2.6.3-5.2 0-7.8-.3-2.3-1.8-3.7-4-3.7h-9.2c-2.3 0-4 2.1-4 4.9v2.1c0 2.1 0 4.1.5 6.4v.5Zm2.3-6.8v-2.3c0-1.2.6-2.3 1.4-2.3h9c.8 0 1.2.3 1.4 1.4.3 2.5.3 4.9.2 7.4v.9c0 .8-.6 1.4-1.8 1.5h-6.4c-1.4 0-2.5 0-3.4-.6v-.6c-.5-1.8-.5-3.7-.3-5.7v.3ZM194.8 98.9c-.2.5-.8 2.1 0 3.4.9 1.2 2.6 1.2 3.1 1.4h10.3c1.7 0 3.1-.8 3.5-2.1.3-.8.3-1.5 0-2.1 0 0-.2-.3-.3-.5 0-.5.2-.9.2-1.5v-.9c0-2.6.3-5.2 0-7.8-.3-2.3-1.8-3.7-4-3.7h-9.2c-2.3 0-4 2.1-4 4.9v2.1c0 2.1 0 4.1.5 6.4v.5h-.1Zm2.3-6.8v-2.3c0-1.2.6-2.3 1.4-2.3h9c.8 0 1.2.3 1.4 1.4.3 2.5.3 4.9.2 7.4v.9c0 .8-.6 1.4-1.8 1.5h-6.4c-1.4 0-2.5 0-3.4-.6v-.6c-.5-1.8-.5-3.7-.3-5.7v.3ZM224.8 98.9c-.2.5-.8 2.1 0 3.4.9 1.2 2.6 1.2 3.1 1.4h10.3c1.7 0 3.1-.8 3.5-2.1.3-.8.3-1.5 0-2.1 0 0-.2-.3-.3-.5 0-.5.2-.9.2-1.5v-.9c0-2.6.3-5.2 0-7.8-.3-2.3-1.8-3.7-4-3.7h-9.2c-2.3 0-4 2.1-4 4.9v2.1c0 2.1 0 4.1.5 6.4v.5h-.1Zm2.3-6.8v-2.3c0-1.2.6-2.3 1.4-2.3h9c.8 0 1.2.3 1.4 1.4.3 2.5.3 4.9.2 7.4v.9c0 .8-.6 1.4-1.8 1.5h-6.4c-1.4 0-2.5 0-3.4-.6v-.6c-.5-1.8-.5-3.7-.3-5.7v.3ZM254.8 98.9c-.2.5-.8 2.1 0 3.4.9 1.2 2.6 1.2 3.1 1.4h10.3c1.7 0 3.1-.8 3.5-2.1.3-.8.3-1.5 0-2.1 0 0-.2-.3-.3-.5 0-.5.2-.9.2-1.5v-.9c0-2.6.3-5.2 0-7.8-.3-2.3-1.8-3.7-4-3.7h-9.2c-2.3 0-4 2.1-4 4.9v2.1c0 2.1 0 4.1.5 6.4v.5h-.1Zm2.3-6.8v-2.3c0-1.2.6-2.3 1.4-2.3h9c.8 0 1.2.3 1.4 1.4.3 2.5.3 4.9.2 7.4v.9c0 .8-.6 1.4-1.8 1.5h-6.4c-1.4 0-2.5 0-3.4-.6v-.6c-.5-1.8-.5-3.7-.3-5.7v.3ZM104.7 129.7c-.2.5-.8 2.1 0 3.4.9 1.2 2.6 1.2 3.1 1.4h10.3c1.7 0 3.1-.8 3.5-2.1.3-.8.3-1.5 0-2.1 0 0-.2-.3-.3-.5 0-.5.2-.9.2-1.5v-.9c0-2.6.3-5.2 0-7.8-.3-2.3-1.8-3.7-4-3.7h-9.2c-2.3 0-4 2.1-4 4.9v2.1c0 2.1 0 4.1.5 6.4v.5Zm2.3-6.8v-2.3c0-1.2.6-2.3 1.4-2.3h9c.8 0 1.2.3 1.4 1.4.3 2.5.3 4.9.2 7.4v.9c0 .8-.6 1.4-1.8 1.5h-6.4c-1.4 0-2.5 0-3.4-.6v-.6c-.5-1.8-.5-3.7-.3-5.7v.3h-.1ZM134.7 129.7c-.2.5-.8 2.1 0 3.4.9 1.2 2.6 1.2 3.1 1.4h10.3c1.7 0 3.1-.8 3.5-2.1.3-.8.3-1.5 0-2.1 0 0-.2-.3-.3-.5 0-.5.2-.9.2-1.5v-.9c0-2.6.3-5.2 0-7.8-.3-2.3-1.8-3.7-4-3.7h-9.2c-2.3 0-4 2.1-4 4.9v2.1c0 2.1 0 4.1.5 6.4v.5Zm2.3-6.8v-2.3c0-1.2.6-2.3 1.4-2.3h9c.8 0 1.2.3 1.4 1.4.3 2.5.3 4.9.2 7.4v.9c0 .8-.6 1.4-1.8 1.5h-6.4c-1.4 0-2.5 0-3.4-.6v-.6c-.5-1.8-.5-3.7-.3-5.7v.3ZM164.7 129.7c-.2.5-.8 2.1 0 3.4.9 1.2 2.6 1.2 3.1 1.4h10.3c1.7 0 3.1-.8 3.5-2.1.3-.8.3-1.5 0-2.1 0 0-.2-.3-.3-.5 0-.5.2-.9.2-1.5v-.9c0-2.6.3-5.2 0-7.8-.3-2.3-1.8-3.7-4-3.7h-9.2c-2.3 0-4 2.1-4 4.9v2.1c0 2.1 0 4.1.5 6.4v.5Zm2.3-6.8v-2.3c0-1.2.6-2.3 1.4-2.3h9c.8 0 1.2.3 1.4 1.4.3 2.5.3 4.9.2 7.4v.9c0 .8-.6 1.4-1.8 1.5h-6.4c-1.4 0-2.5 0-3.4-.6v-.6c-.5-1.8-.5-3.7-.3-5.7v.3ZM194.8 129.7c-.2.5-.8 2.1 0 3.4.9 1.2 2.6 1.2 3.1 1.4h10.3c1.7 0 3.1-.8 3.5-2.1.3-.8.3-1.5 0-2.1 0 0-.2-.3-.3-.5 0-.5.2-.9.2-1.5v-.9c0-2.6.3-5.2 0-7.8-.3-2.3-1.8-3.7-4-3.7h-9.2c-2.3 0-4 2.1-4 4.9v2.1c0 2.1 0 4.1.5 6.4v.5h-.1Zm2.3-6.8v-2.3c0-1.2.6-2.3 1.4-2.3h9c.8 0 1.2.3 1.4 1.4.3 2.5.3 4.9.2 7.4v.9c0 .8-.6 1.4-1.8 1.5h-6.4c-1.4 0-2.5 0-3.4-.6v-.6c-.5-1.8-.5-3.7-.3-5.7v.3ZM224.8 129.7c-.2.5-.8 2.1 0 3.4.9 1.2 2.6 1.2 3.1 1.4h10.3c1.7 0 3.1-.8 3.5-2.1.3-.8.3-1.5 0-2.1 0 0-.2-.3-.3-.5 0-.5.2-.9.2-1.5v-.9c0-2.6.3-5.2 0-7.8-.3-2.3-1.8-3.7-4-3.7h-9.2c-2.3 0-4 2.1-4 4.9v2.1c0 2.1 0 4.1.5 6.4v.5h-.1Zm2.3-6.8v-2.3c0-1.2.6-2.3 1.4-2.3h9c.8 0 1.2.3 1.4 1.4.3 2.5.3 4.9.2 7.4v.9c0 .8-.6 1.4-1.8 1.5h-6.4c-1.4 0-2.5 0-3.4-.6v-.6c-.5-1.8-.5-3.7-.3-5.7v.3ZM254.8 129.7c-.2.5-.8 2.1 0 3.4.9 1.2 2.6 1.2 3.1 1.4h10.3c1.7 0 3.1-.8 3.5-2.1.3-.8.3-1.5 0-2.1 0 0-.2-.3-.3-.5 0-.5.2-.9.2-1.5v-.9c0-2.6.3-5.2 0-7.8-.3-2.3-1.8-3.7-4-3.7h-9.2c-2.3 0-4 2.1-4 4.9v2.1c0 2.1 0 4.1.5 6.4v.5h-.1Zm2.3-6.8v-2.3c0-1.2.6-2.3 1.4-2.3h9c.8 0 1.2.3 1.4 1.4.3 2.5.3 4.9.2 7.4v.9c0 .8-.6 1.4-1.8 1.5h-6.4c-1.4 0-2.5 0-3.4-.6v-.6c-.5-1.8-.5-3.7-.3-5.7v.3ZM104.7 160.5c-.2.5-.8 2.1 0 3.4.9 1.2 2.6 1.2 3.1 1.4h10.3c1.7 0 3.1-.8 3.5-2.1.3-.8.3-1.5 0-2.1 0 0-.2-.3-.3-.5 0-.5.2-.9.2-1.5v-.9c0-2.6.3-5.2 0-7.8-.3-2.3-1.8-3.7-4-3.7h-9.2c-2.3 0-4 2.1-4 4.9v2.1c0 2.1 0 4.1.5 6.4v.5Zm2.3-6.8v-2.3c0-1.2.6-2.3 1.4-2.3h9c.8 0 1.2.3 1.4 1.4.3 2.5.3 4.9.2 7.4v.9c0 .8-.6 1.4-1.8 1.5h-6.4c-1.4 0-2.5 0-3.4-.6v-.6c-.5-1.8-.5-3.7-.3-5.7v.3h-.1ZM134.7 160.5c-.2.5-.8 2.1 0 3.4.9 1.2 2.6 1.2 3.1 1.4h10.3c1.7 0 3.1-.8 3.5-2.1.3-.8.3-1.5 0-2.1 0 0-.2-.3-.3-.5 0-.5.2-.9.2-1.5v-.9c0-2.6.3-5.2 0-7.8-.3-2.3-1.8-3.7-4-3.7h-9.2c-2.3 0-4 2.1-4 4.9v2.1c0 2.1 0 4.1.5 6.4v.5Zm2.3-6.8v-2.3c0-1.2.6-2.3 1.4-2.3h9c.8 0 1.2.3 1.4 1.4.3 2.5.3 4.9.2 7.4v.9c0 .8-.6 1.4-1.8 1.5h-6.4c-1.4 0-2.5 0-3.4-.6v-.6c-.5-1.8-.5-3.7-.3-5.7v.3ZM164.7 160.5c-.2.5-.8 2.1 0 3.4.9 1.2 2.6 1.2 3.1 1.4h10.3c1.7 0 3.1-.8 3.5-2.1.3-.8.3-1.5 0-2.1 0 0-.2-.3-.3-.5 0-.5.2-.9.2-1.5v-.9c0-2.6.3-5.2 0-7.8-.3-2.3-1.8-3.7-4-3.7h-9.2c-2.3 0-4 2.1-4 4.9v2.1c0 2.1 0 4.1.5 6.4v.5Zm2.3-6.8v-2.3c0-1.2.6-2.3 1.4-2.3h9c.8 0 1.2.3 1.4 1.4.3 2.5.3 4.9.2 7.4v.9c0 .8-.6 1.4-1.8 1.5h-6.4c-1.4 0-2.5 0-3.4-.6v-.6c-.5-1.8-.5-3.7-.3-5.7v.3ZM194.8 160.5c-.2.5-.8 2.1 0 3.4.9 1.2 2.6 1.2 3.1 1.4h10.3c1.7 0 3.1-.8 3.5-2.1.3-.8.3-1.5 0-2.1 0 0-.2-.3-.3-.5 0-.5.2-.9.2-1.5v-.9c0-2.6.3-5.2 0-7.8-.3-2.3-1.8-3.7-4-3.7h-9.2c-2.3 0-4 2.1-4 4.9v2.1c0 2.1 0 4.1.5 6.4v.5h-.1Zm2.3-6.8v-2.3c0-1.2.6-2.3 1.4-2.3h9c.8 0 1.2.3 1.4 1.4.3 2.5.3 4.9.2 7.4v.9c0 .8-.6 1.4-1.8 1.5h-6.4c-1.4 0-2.5 0-3.4-.6v-.6c-.5-1.8-.5-3.7-.3-5.7v.3ZM224.8 160.5c-.2.5-.8 2.1 0 3.4.9 1.2 2.6 1.2 3.1 1.4h10.3c1.7 0 3.1-.8 3.5-2.1.3-.8.3-1.5 0-2.1 0 0-.2-.3-.3-.5 0-.5.2-.9.2-1.5v-.9c0-2.6.3-5.2 0-7.8-.3-2.3-1.8-3.7-4-3.7h-9.2c-2.3 0-4 2.1-4 4.9v2.1c0 2.1 0 4.1.5 6.4v.5h-.1Zm2.3-6.8v-2.3c0-1.2.6-2.3 1.4-2.3h9c.8 0 1.2.3 1.4 1.4.3 2.5.3 4.9.2 7.4v.9c0 .8-.6 1.4-1.8 1.5h-6.4c-1.4 0-2.5 0-3.4-.6v-.6c-.5-1.8-.5-3.7-.3-5.7v.3ZM254.8 160.5c-.2.5-.8 2.1 0 3.4.9 1.2 2.6 1.2 3.1 1.4h10.3c1.7 0 3.1-.8 3.5-2.1.3-.8.3-1.5 0-2.1 0 0-.2-.3-.3-.5 0-.5.2-.9.2-1.5v-.9c0-2.6.3-5.2 0-7.8-.3-2.3-1.8-3.7-4-3.7h-9.2c-2.3 0-4 2.1-4 4.9v2.1c0 2.1 0 4.1.5 6.4v.5h-.1Zm2.3-6.8v-2.3c0-1.2.6-2.3 1.4-2.3h9c.8 0 1.2.3 1.4 1.4.3 2.5.3 4.9.2 7.4v.9c0 .8-.6 1.4-1.8 1.5h-6.4c-1.4 0-2.5 0-3.4-.6v-.6c-.5-1.8-.5-3.7-.3-5.7v.3ZM104.7 191.3c-.2.5-.8 2.1 0 3.4.9 1.2 2.6 1.2 3.1 1.4h10.3c1.7 0 3.1-.8 3.5-2.1.3-.8.3-1.5 0-2.1 0 0-.2-.3-.3-.5 0-.5.2-.9.2-1.5v-.9c0-2.6.3-5.2 0-7.8-.3-2.3-1.8-3.7-4-3.7h-9.2c-2.3 0-4 2.1-4 4.9v2.1c0 2.1 0 4.1.5 6.4v.5Zm2.3-6.7v-2.3c0-1.2.6-2.3 1.4-2.3h9c.8 0 1.2.3 1.4 1.4.3 2.5.3 4.9.2 7.4v.9c0 .8-.6 1.4-1.8 1.5h-6.4c-1.4 0-2.5 0-3.4-.6v-.6c-.5-1.8-.5-3.7-.3-5.7v.3h-.1ZM134.7 191.3c-.2.5-.8 2.1 0 3.4.9 1.2 2.6 1.2 3.1 1.4h10.3c1.7 0 3.1-.8 3.5-2.1.3-.8.3-1.5 0-2.1 0 0-.2-.3-.3-.5 0-.5.2-.9.2-1.5v-.9c0-2.6.3-5.2 0-7.8-.3-2.3-1.8-3.7-4-3.7h-9.2c-2.3 0-4 2.1-4 4.9v2.1c0 2.1 0 4.1.5 6.4v.5Zm2.3-6.7v-2.3c0-1.2.6-2.3 1.4-2.3h9c.8 0 1.2.3 1.4 1.4.3 2.5.3 4.9.2 7.4v.9c0 .8-.6 1.4-1.8 1.5h-6.4c-1.4 0-2.5 0-3.4-.6v-.6c-.5-1.8-.5-3.7-.3-5.7v.3ZM164.7 191.3c-.2.5-.8 2.1 0 3.4.9 1.2 2.6 1.2 3.1 1.4h10.3c1.7 0 3.1-.8 3.5-2.1.3-.8.3-1.5 0-2.1 0 0-.2-.3-.3-.5 0-.5.2-.9.2-1.5v-.9c0-2.6.3-5.2 0-7.8-.3-2.3-1.8-3.7-4-3.7h-9.2c-2.3 0-4 2.1-4 4.9v2.1c0 2.1 0 4.1.5 6.4v.5Zm2.3-6.7v-2.3c0-1.2.6-2.3 1.4-2.3h9c.8 0 1.2.3 1.4 1.4.3 2.5.3 4.9.2 7.4v.9c0 .8-.6 1.4-1.8 1.5h-6.4c-1.4 0-2.5 0-3.4-.6v-.6c-.5-1.8-.5-3.7-.3-5.7v.3ZM194.8 191.3c-.2.5-.8 2.1 0 3.4.9 1.2 2.6 1.2 3.1 1.4h10.3c1.7 0 3.1-.8 3.5-2.1.3-.8.3-1.5 0-2.1 0 0-.2-.3-.3-.5 0-.5.2-.9.2-1.5v-.9c0-2.6.3-5.2 0-7.8-.3-2.3-1.8-3.7-4-3.7h-9.2c-2.3 0-4 2.1-4 4.9v2.1c0 2.1 0 4.1.5 6.4v.5h-.1Zm2.3-6.7v-2.3c0-1.2.6-2.3 1.4-2.3h9c.8 0 1.2.3 1.4 1.4.3 2.5.3 4.9.2 7.4v.9c0 .8-.6 1.4-1.8 1.5h-6.4c-1.4 0-2.5 0-3.4-.6v-.6c-.5-1.8-.5-3.7-.3-5.7v.3ZM224.8 191.3c-.2.5-.8 2.1 0 3.4.9 1.2 2.6 1.2 3.1 1.4h10.3c1.7 0 3.1-.8 3.5-2.1.3-.8.3-1.5 0-2.1 0 0-.2-.3-.3-.5 0-.5.2-.9.2-1.5v-.9c0-2.6.3-5.2 0-7.8-.3-2.3-1.8-3.7-4-3.7h-9.2c-2.3 0-4 2.1-4 4.9v2.1c0 2.1 0 4.1.5 6.4v.5h-.1Zm2.3-6.7v-2.3c0-1.2.6-2.3 1.4-2.3h9c.8 0 1.2.3 1.4 1.4.3 2.5.3 4.9.2 7.4v.9c0 .8-.6 1.4-1.8 1.5h-6.4c-1.4 0-2.5 0-3.4-.6v-.6c-.5-1.8-.5-3.7-.3-5.7v.3ZM254.8 191.3c-.2.5-.8 2.1 0 3.4.9 1.2 2.6 1.2 3.1 1.4h10.3c1.7 0 3.1-.8 3.5-2.1.3-.8.3-1.5 0-2.1 0 0-.2-.3-.3-.5 0-.5.2-.9.2-1.5v-.9c0-2.6.3-5.2 0-7.8-.3-2.3-1.8-3.7-4-3.7h-9.2c-2.3 0-4 2.1-4 4.9v2.1c0 2.1 0 4.1.5 6.4v.5h-.1Zm2.3-6.7v-2.3c0-1.2.6-2.3 1.4-2.3h9c.8 0 1.2.3 1.4 1.4.3 2.5.3 4.9.2 7.4v.9c0 .8-.6 1.4-1.8 1.5h-6.4c-1.4 0-2.5 0-3.4-.6v-.6c-.5-1.8-.5-3.7-.3-5.7v.3Z" class="cls-1"></path>
    <path d="M252.1 47h-128v16h128V47Zm-2 14h-124V49h124v12Z"></path>
  </g>
</svg>
