<?xml version="1.0" encoding="UTF-8"?>
<svg xmlns="http://www.w3.org/2000/svg" xmlns:xlink="http://www.w3.org/1999/xlink" xml:space="preserve" id="Layer_1" x="0" y="0" version="1.1" viewBox="0 0 376 189">
  <defs>
    <filter id="Adobe_OpacityMaskFilter" filterUnits="userSpaceOnUse">
      <feColorMatrix values="1 0 0 0 0 0 1 0 0 0 0 0 1 0 0 0 0 0 1 0"></feColorMatrix>
    </filter>
  </defs>
  <mask id="mask0_858_14997_00000000223225614535562040000002265261053512870040_" maskUnits="userSpaceOnUse">
    <path fill="#d9d9d9" d="M0 0h376v189H0z" filter="url(#Adobe_OpacityMaskFilter)"></path>
  </mask>
  <defs>
    <path id="SVGID_1_" d="M117 39h127v112H117z"></path>
  </defs>
  <clipPath id="SVGID_00000098920345522751708790000006429218007095926156_">
    <use xlink:href="#SVGID_1_" overflow="visible"></use>
  </clipPath>
  <g clip-path="url(#SVGID_00000098920345522751708790000006429218007095926156_)">
    <path d="M131.4 60.3H130a1 1 0 0 1 0-2h1.4a1 1 0 0 1 0 2zM130.1 76.2a1 1 0 0 1-1-1c0-.6.4-1 1-1h1.3c.5 0 1 .4 1 1s-.4 1-1 1h-1.3z" class="st3"></path>
    <path d="M129.5 77.3h-9c-.2 0-.3 0-.4-.1-.6-.2-1-.6-1.2-1.2-.1-.3-.1-.7 0-1.1.1-.4.4-.7.7-.9.1 0 .4-.2.8-.2h9.1c.5 0 1 .2 1.3.6.2.3.4.6.4 1 0 .2 0 .6-.2.9-.2.5-.7.8-1.3.9-.1.1-.1.1-.2.1zM129.4 60.7H120.5c-.2 0-.4 0-.6-.1-.5-.2-.9-.6-1.1-1.2a1.74 1.74 0 0 1 1.6-2.1h8.9c.1 0 .3 0 .4.1.5.2.9.5 1.1.9.3.6.2 1.2-.1 1.7-.1.4-.7.7-1.3.7z" class="st3"></path>
    <path d="M121.1 75.8h-1.3c-.2 0-.4 0-.6-.1-1.2-.3-2.1-1.4-2.1-2.8v-12c.1-.3.1-.5.2-.7.4-1 1.4-1.6 2.4-1.6h1.6c.4.1.8.3 1 .6.3.3.5.7.5 1.2v13c0 .9-.3 1.6-.8 2-.1.3-.5.4-.9.4zm-2-2.7c0 .3.2.6.5.7H121V60.7H119.7c-.2 0-.4.2-.5.4 0 .1-.1.2-.1.2V73.1zm2-12.5zM130.1 104a1 1 0 0 1-1-1c0-.6.4-1 1-1h1.4c.6 0 1 .4 1 1s-.4 1-1 1h-1.4zM131.4 88h-1.3c-.6 0-1-.4-1-1s.4-1 1-1h1.3c.6 0 1 .4 1 1s-.4 1-1 1z" class="st3"></path>
    <path d="M129.5 88.4h-9c-.5 0-.8-.2-.9-.3-.3-.2-.6-.5-.7-.9-.1-.4-.1-.8 0-1.2.1-.5.6-.9 1.1-1.1.1 0 .3-.1.4-.1h9.2c.6.1 1.1.4 1.3.9.2.3.2.7.2 1 0 .3-.1.6-.4.9-.2.5-.7.8-1.2.8zm0-1.5zm0-.3v.1l.7-.1h-.7zM129.5 105.1h-8.9c-.5 0-1.1-.3-1.4-.7-.3-.4-.4-.9-.3-1.4.1-.6.6-1 1.1-1.2.2-.1.4-.1.6-.1h8.7c.6-.1 1.3.2 1.6.8.3.5.4 1.1.1 1.7-.2.5-.6.8-1.1.9h-.4z" class="st3"></path>
    <path d="M120.7 103.6h-.8c-1.1 0-2.1-.7-2.5-1.7-.1-.2-.1-.4-.2-.6l-.1-.4V89.2c0-1.3.9-2.5 2.1-2.8.1 0 .4-.1.6-.1h1.3c.4 0 .8.1 1.2.4.6.4.9 1.1.9 2v13c-.1.5-.3.9-.5 1.2-.3.3-.6.5-1 .6-.4.1-.6.1-1 .1zm.4-2zm-1.1 0h1.1V88.7c0-.3-.1-.4-.1-.4H119.6c-.3.1-.5.4-.5.7v11.9s0 .1.1.1c.1.3.4.5.6.5 0 .1.1.1.2.1zM209.1 54.4a1 1 0 0 1-1-1V52a1 1 0 0 1 2 0v1.4c0 .5-.5 1-1 1zM193.1 54.4a1 1 0 0 1-1-1v-1.3c0-.6.4-1 1-1s1 .4 1 1v1.3c0 .5-.4 1-1 1zM221 54.4a1 1 0 0 1-1-1V52c0-.6.4-1 1-1 .5 0 1 .4 1 1v1.4c0 .5-.5 1-1 1zM237 54.4c-.6 0-1-.4-1-1V52c0-.6.4-1 1-1s1 .4 1 1v1.3c0 .6-.5 1.1-1 1.1z" class="st3"></path>
    <path d="M237.4 53.1h-.3c-.3 0-.6-.1-.9-.4-.4-.3-.6-.8-.6-1.3v-9c0-.4.1-.7.3-.9.2-.3.5-.6.9-.7.4-.1.8-.1 1.2 0 .5.1.9.6 1.1 1.1 0 .1.1.3.1.4v9.1c-.1.6-.4 1.1-.9 1.3-.4.4-.7.4-.9.4zm-.1-1.7.1.7v-.7h-.1zM220.6 53.1c-.2 0-.5 0-.7-.1-.5-.2-.8-.6-.9-1.1 0-.2-.1-.3-.1-.5v-8.9c0-.5.3-1.1.7-1.4.4-.3.9-.4 1.4-.3.6.2 1.1.6 1.3 1.1.1.1.1.3.1.5V51.3c0 .6-.3 1.1-.8 1.5-.4.2-.7.3-1 .3z" class="st3"></path>
    <path d="M235.2 45.1h-12.6c-.2 0-.4 0-.6-.1-.2 0-.7-.2-1.1-.5-.3-.3-.5-.6-.6-1-.1-.2-.1-.6 0-1.2v-.4c0-1.1.7-2.1 1.6-2.5.2-.1.4-.2.6-.2h12.1c1.3 0 2.5.9 2.8 2.1 0 .1.1.3.1.6v1.3c0 .4-.1.8-.4 1.2-.3.4-1 .7-1.9.7zm-12.9-2h12.9c.3 0 .4-.1.4-.1V41.6c-.1-.3-.4-.5-.7-.5h-12s-.1 0-.1.1c-.3.1-.5.4-.5.6v1.3zM192.7 53.1c-.2 0-.5 0-.8-.2-.5-.2-.8-.7-.9-1.3v-9.1c0-.2 0-.3.1-.4.2-.6.6-1 1.2-1.2.3-.1.7-.1 1.1 0 .4.1.7.4.9.7.2.2.3.5.3.9v9.1c0 .5-.2 1-.6 1.3-.3.2-.6.4-1 .4-.2-.2-.3-.2-.3-.2zm.3-1.7zM209.5 53.1c-.3 0-.7-.1-.9-.3-.5-.3-.8-.9-.8-1.5V42.4c0-.2 0-.4.1-.6.2-.5.6-.9 1.2-1.1a1.74 1.74 0 0 1 2.1 1.6v8.9c0 .1 0 .3-.1.4-.1.5-.5.9-.9 1.1-.2.4-.5.4-.7.4z" class="st3"></path>
    <path d="M207.4 45.1h-12.6c-.9 0-1.6-.3-2-.8-.3-.4-.4-.8-.4-1.2v-1.3c0-.2 0-.4.1-.6.3-1.2 1.4-2 2.8-2h12.1c.2 0 .4.1.6.2 1 .4 1.6 1.4 1.6 2.4v1.6c-.1.4-.3.8-.6 1-.4.4-.9.5-1.2.5-.1.2-.3.2-.4.2zm-12.9-2H207.8v-1.2c0-.2-.2-.4-.5-.5-.1 0-.1-.1-.2-.1H195.2c-.3 0-.6.2-.7.5v1.3zM153.4 54.4a1 1 0 0 1-1-1V52c0-.5.5-1 1-1 .6 0 1 .5 1 1v1.4c0 .5-.5 1-1 1zM137.4 54.4c-.6 0-1-.4-1-1V52c0-.6.4-1 1-1s1 .4 1 1v1.3c0 .6-.5 1.1-1 1.1zM165.2 54.4c-.6 0-1-.4-1-1V52c0-.6.4-1 1-1s1 .4 1 1v1.4c0 .5-.4 1-1 1zM181.2 54.4a1 1 0 0 1-1-1v-1.3c0-.5.5-1 1-1 .6 0 1 .5 1 1v1.3c0 .5-.4 1-1 1z" class="st3"></path>
    <path d="M181.7 53.1h-.3c-.3 0-.6-.1-.9-.4-.4-.3-.6-.8-.6-1.3v-9c0-.4.1-.7.2-.9.2-.3.5-.6.9-.7.4-.1.8-.1 1.2 0 .5.1.9.6 1.1 1.1 0 .1.1.3.1.4v9c0 .6-.4 1.3-1 1.5-.2.3-.5.3-.7.3zm-.2-1.9.2 1v-1c-.1-.1-.1-.1-.2 0zM164.9 53.1c-.2 0-.5 0-.7-.2-.5-.2-.8-.6-.9-1.1 0-.2-.1-.3-.1-.5v-8.9c0-.5.3-1.1.7-1.4.4-.3.9-.4 1.4-.3.6.1 1 .5 1.2 1.1.1.2.1.4.1.6V51.3c0 .6-.3 1.1-.8 1.5-.3.2-.6.3-.9.3z" class="st3"></path>
    <path d="M179.5 45.1h-12.6c-.2 0-.4 0-.6-.1-.2 0-.7-.2-1.1-.5-.3-.3-.5-.6-.6-1-.1-.2-.1-.6 0-1.2v-.4c0-1.1.7-2.1 1.6-2.5.2-.1.4-.2.6-.2h12.1c1.3 0 2.5.9 2.8 2.1 0 .1.1.4.1.6v1.3c0 .4-.1.8-.4 1.2-.3.4-1 .7-1.9.7zm-12.9-2h12.9c.3 0 .4-.1.4-.1V41.6c-.1-.3-.4-.5-.7-.5h-11.9s-.1 0-.1.1c-.3.1-.5.4-.5.6v.5c-.1.2-.1.6-.1.8zM136.9 53.1c-.2 0-.5 0-.8-.2-.5-.2-.9-.8-.9-1.5v-9c0-.2 0-.3.1-.4.2-.6.6-1 1.2-1.2.3-.1.7-.1 1.1 0 .4.1.7.4.9.7.1.2.2.5.2.8v9.1c0 .5-.2 1-.6 1.3-.3.2-.6.4-1 .4h-.2zM153.7 53.1c-.3 0-.7-.1-.9-.3-.5-.3-.8-.9-.8-1.5V42.4c0-.2 0-.4.1-.6.2-.5.6-.9 1.2-1a1.74 1.74 0 0 1 2.1 1.6v8.9c0 .2 0 .3-.1.4-.2.5-.5.9-.9 1.1-.1.3-.4.3-.7.3z" class="st3"></path>
    <path d="M151.7 45.1h-12.6c-.9 0-1.6-.3-2-.8-.3-.4-.4-.8-.4-1.2v-1.3c0-.2 0-.4.1-.6.3-1.2 1.4-2.1 2.8-2.1h12.1c.2 0 .4.1.6.2 1 .4 1.6 1.4 1.6 2.4v1.6c-.1.4-.3.8-.6 1-.4.4-.9.5-1.2.5-.1.3-.3.3-.4.3zm-13-2H152V41.8c0-.2-.2-.4-.5-.5-.1 0-.1-.1-.2-.1H139.4c-.3 0-.6.2-.7.5V43.1zM165.2 139c-.6 0-1-.4-1-1v-1.4c0-.6.4-1 1-1s1 .4 1 1v1.4c0 .5-.4 1-1 1zM181.3 138.9a1 1 0 0 1-1-1v-1.3c0-.6.4-1 1-1 .5 0 1 .4 1 1v1.3c0 .6-.5 1-1 1zM153.4 139a1 1 0 0 1-1-1v-1.4c0-.6.4-1 1-1s1 .4 1 1v1.4c0 .5-.4 1-1 1zM137.4 138.9c-.6 0-1-.4-1-1v-1.3c0-.6.4-1 1-1s1 .4 1 1v1.3c0 .6-.5 1-1 1z" class="st3"></path>
    <path d="M137 149.2c-.2 0-.4 0-.6-.1-.5-.1-.9-.6-1.1-1.1 0-.1-.1-.3-.1-.5v-9c0-.7.4-1.3 1-1.5.3-.2.7-.2.9-.1.3 0 .6.1.9.4.4.3.6.8.6 1.3v9c0 .4-.1.7-.2.8-.2.4-.6.7-.9.8h-.5zm0-10.3h.1l-.2-1 .1 1zM153.8 149.2h-.4c-.6-.1-1-.5-1.2-1.1-.1-.2-.1-.4-.1-.6V138.6c0-.6.3-1.1.8-1.5.5-.3 1.1-.4 1.7-.1.5.2.8.6.9 1.1.1.2.1.4.1.5v8.9c0 .5-.3 1.1-.7 1.4-.4.2-.8.3-1.1.3z" class="st3"></path>
    <path d="M139.6 150.9c-1.3 0-2.5-.9-2.8-2.1 0-.2-.1-.4-.1-.6v-1.3c0-.4.1-.8.4-1.2.4-.6 1.1-.9 2-.9h13.1c.5.1.9.3 1.2.5.3.3.5.6.6 1 .1.2.1.6 0 1.2v.4c0 1.1-.7 2.1-1.7 2.5-.2.1-.4.1-.6.2l-.4.1h-11.5c-.1.2-.2.2-.2.2zm-.5-4c-.3 0-.4.1-.4.1V148.4c.1.3.4.5.7.5h12s.1 0 .1-.1c.3-.1.5-.4.5-.6v-1.3h-12.9zm12.9.1zM181.6 149.2c-.2 0-.4 0-.6-.1-.4-.1-.7-.4-.9-.7-.1-.2-.2-.5-.2-.8v-9c0-.5.2-1 .6-1.3.3-.2.6-.4 1-.4.2 0 .6 0 .9.2.5.2.9.9.9 1.5v9c0 .2 0 .3-.1.4-.2.6-.6 1-1.2 1.2h-.4zM164.9 149.2c-.4 0-.7-.1-1-.3-.4-.3-.7-.8-.7-1.3v-8.9c0-.1 0-.3.1-.4.2-.5.5-.9.9-1.1.6-.3 1.2-.2 1.7.1.5.3.8.9.8 1.5V147.7c0 .2 0 .4-.1.6-.2.5-.6.9-1.2 1-.3-.2-.4-.1-.5-.1z" class="st3"></path>
    <path d="M179 150.9h-12c-.3-.1-.5-.1-.7-.2-1-.4-1.6-1.4-1.6-2.4v-1.6c.1-.4.3-.8.6-1 .3-.3.7-.5 1.2-.5h13.1c.9 0 1.6.3 2 .8.3.4.4.8.4 1.2v1.3c0 .2 0 .4-.1.6-.4.9-1.5 1.8-2.9 1.8zm-11.5-2h11.6c.3 0 .6-.2.7-.5V147H166.5V148.3c0 .2.2.4.4.5.1 0 .2.1.2.1h.4zm-.9-1.9zM220.9 139a1 1 0 0 1-1-1v-1.4c0-.6.4-1 1-1s1 .5 1 1v1.4c0 .5-.4 1-1 1zM237 138.9c-.6 0-1-.4-1-1v-1.3c0-.6.4-1 1-1s1 .4 1 1v1.3c0 .6-.5 1-1 1zM209.1 139a1 1 0 0 1-1-1v-1.4c0-.6.4-1 1-1 .5 0 1 .4 1 1v1.4c0 .5-.4 1-1 1zM193.1 138.9a1 1 0 0 1-1-1v-1.3a1 1 0 0 1 2 0v1.3c0 .6-.5 1-1 1z" class="st3"></path>
    <path d="M192.7 149.2c-.2 0-.4 0-.6-.1-.5-.1-.9-.6-1.1-1.1 0-.1-.1-.3-.1-.4V138.4c.1-.6.4-1 .9-1.3.3-.2.7-.2 1-.1.3 0 .6.1.9.4.4.3.6.8.6 1.3v9c0 .5-.2.8-.3.9-.2.3-.5.5-.9.7 0-.1-.2-.1-.4-.1zm0-10.6h.1l-.1-.7v.7zm-.7 0zM209.5 149.2h-.4c-.6-.2-1.1-.6-1.3-1.1-.1-.1-.1-.3-.1-.5V138.7c0-.6.3-1.1.8-1.5.5-.3 1.1-.4 1.7-.1.5.2.8.6.9 1.1.1.2.1.3.1.5v8.9c0 .5-.3 1.1-.7 1.4-.3.1-.7.2-1 .2z" class="st3"></path>
    <path d="M195.3 150.9c-1.3 0-2.5-.9-2.8-2.1 0-.1-.1-.4-.1-.6v-1.3c0-.4.1-.8.4-1.2.4-.6 1.1-.9 2-.9h13.1c.5.1.9.3 1.2.5.3.3.5.6.6 1 .1.2.1.6 0 1.2v.4c0 1.1-.7 2.1-1.7 2.5-.2.1-.4.1-.6.2l-.4.1h-11.5c-.1.2-.1.2-.2.2zm-.5-4c-.3 0-.4.1-.4.1V148.4c.1.3.4.5.7.5H207s.1 0 .1-.1c.3-.1.5-.4.5-.6v-1.3h-12.8zm13 .1zM237.4 149.2c-.2 0-.4 0-.6-.1-.4-.1-.7-.4-.9-.7 0-.1-.2-.4-.2-.8v-9c0-.5.2-1 .6-1.3.3-.2.6-.4 1-.4.2 0 .6 0 .9.2.5.2.8.7.9 1.3V147.6c0 .2 0 .3-.1.4-.2.6-.6 1-1.2 1.2h-.4zm1.7-10.6zM220.6 149.2c-.4 0-.7-.1-1-.3-.4-.3-.7-.8-.7-1.3v-8.9c0-.2 0-.3.1-.4.2-.5.5-.9.9-1.1.6-.3 1.2-.2 1.7.1.5.3.8.9.8 1.5V147.7c0 .2 0 .4-.1.6-.1.5-.6.9-1.2 1-.2-.2-.4-.1-.5-.1z" class="st3"></path>
    <path d="M234.7 150.9h-12c-.3-.1-.5-.1-.7-.2-1-.4-1.6-1.4-1.6-2.4v-1.6c.1-.4.3-.8.6-1 .3-.3.7-.5 1.2-.5h13.1c.9 0 1.6.3 2 .8.3.4.4.8.4 1.2v1.3c0 .2 0 .4-.1.6-.4.9-1.5 1.8-2.9 1.8zm-11.5-2h11.7c.3 0 .6-.2.7-.5V147H222.3V148.3c0 .2.2.4.4.5.1 0 .2.1.2.1h.3zm-.9-1.9zM130.1 131.7a1 1 0 0 1-1-1c0-.6.4-1 1-1h1.4c.5 0 1 .4 1 1s-.4 1-1 1h-1.4zM131.4 115.8H130a1 1 0 0 1 0-2h1.3c.6 0 1 .5 1 1 .1.5-.3 1-.9 1z" class="st3"></path>
    <path d="M129.5 116.1h-9c-.5 0-.8-.2-.9-.3-.3-.2-.6-.5-.7-.9-.1-.4-.1-.8 0-1.2.1-.5.6-.9 1.1-1.1.1 0 .3-.1.5-.1h9.3c.5.1 1 .4 1.3.9.2.3.2.7.2 1 0 .3-.1.6-.4.9-.4.6-.9.8-1.4.8zm0-1.4zm0-.4v.1l.7-.1h-.7zM129.5 132.8h-8.9c-.5 0-1.1-.3-1.4-.7-.3-.4-.4-.9-.3-1.4.1-.6.5-1 1.1-1.2.2-.1.4-.1.6-.1h8.7c.6-.1 1.3.2 1.6.8.3.5.4 1.1.1 1.7-.2.5-.6.8-1.1.9h-.4z" class="st3"></path>
    <path d="M120.7 131.3h-.8c-1.1 0-2.1-.7-2.5-1.7-.1-.2-.1-.4-.2-.6l-.1-.4v-11.7c0-1.3.9-2.5 2.1-2.8.1 0 .4-.1.6-.1h1.3c.4 0 .8.1 1.2.4.6.4.9 1.1.9 2v13.1c-.1.5-.3.9-.5 1.2-.3.3-.6.5-1 .6h-1zm.4-1.9zm-1.1-.1h1.1v-12.8c0-.3-.1-.4-.1-.4H119.6c-.3.1-.5.4-.5.7v11.9s0 .1.1.1c.1.3.4.4.6.4 0 .1.1.1.2.1zM242.9 137.6H131.4c-.6 0-1-.4-1-1V53.4c0-.6.4-1 1-1h111.4c.6 0 1 .4 1 1v27.7c0 .6-.4 1-1 1h-82.6v25.7h82.6c.6 0 1 .4 1 1v27.8c.1.6-.4 1-.9 1zm-110.5-2h109.4v-25.8h-82.6c-.6 0-1-.4-1-1V81.1c0-.6.4-1 1-1h82.6V54.4H132.4v81.2z" class="st3"></path>
  </g>
</svg>
